<svg width="60" height="60" viewBox="0 0 60 60" fill="none" xmlns="http://www.w3.org/2000/svg">
<circle cx="30" cy="30" r="30" fill="#283D2E"/>
<path d="M19.5 27.75L19.5 39.6C19.5 40.2365 19.7458 40.847 20.1834 41.2971C20.621 41.7471 21.2145 42 21.8333 42H38.1667C38.7855 42 39.379 41.7471 39.8166 41.2971C40.2542 40.847 40.5 40.2365 40.5 39.6V27.75M27 42V31.5H33V42" stroke="white" stroke-linecap="round" stroke-linejoin="round"/>
<path d="M18 20C18 18.8954 18.8954 18 20 18H30H40C41.1046 18 42 18.8954 42 20V24.75C42 26.4069 40.6569 27.75 39 27.75C37.3431 27.75 36 26.4069 36 24.75C36 26.4069 34.6569 27.75 33 27.75C31.3431 27.75 30 26.4069 30 24.75C30 26.4069 28.6569 27.75 27 27.75C25.3431 27.75 24 26.4069 24 24.75C24 26.4069 22.6569 27.75 21 27.75C19.3431 27.75 18 26.4069 18 24.75V20Z" stroke="white" stroke-linecap="round" stroke-linejoin="round"/>
</svg>
