<svg width="75" height="23" viewBox="0 0 75 23" fill="none" xmlns="http://www.w3.org/2000/svg">
<path d="M3.05884 17.6957V17.9233C3.05884 19.4148 4.14586 20.8051 6.21879 20.8051C7.93781 20.8051 9.17651 19.8445 9.17651 18.4794C9.17651 17.4935 8.64564 16.6846 7.05302 16.0273L4.70201 15.0919C2.09821 14.0808 0.758389 12.7662 0.758389 10.7691C0.758389 8.01364 3.28636 6.26935 6.37047 6.26935C9.27763 6.26935 11.5528 7.68501 11.755 10.1877L8.6962 10.5669V10.3141C8.6962 8.92371 7.81141 7.81141 5.94071 7.81141C4.49977 7.81141 3.28635 8.74675 3.28635 9.98546C3.28635 10.845 3.81723 11.8056 5.78904 12.5893L8.29172 13.5499C10.6933 14.5105 11.8814 15.7745 11.8814 17.6199C11.8814 20.6787 8.99955 22.3472 5.81432 22.3472C2.78076 22.3472 0 20.9315 0 18.0749L3.05884 17.6957ZM16.0779 14.5863C16.457 18.1508 18.6058 19.8698 21.1843 19.8698C23.0803 19.8698 24.7993 19.0861 25.9116 17.898C25.7347 20.4512 23.1561 22.3472 20.3501 22.3472C16.4318 22.3472 13.3729 19.1114 13.3729 14.5611C13.3729 10.3647 15.8756 6.26935 20.5523 6.26935C23.3584 6.26935 26.1391 7.96308 26.1391 11.1483C26.1391 11.3758 26.1391 11.5528 26.1139 11.755L16.0779 14.5863ZM16.1031 12.2606H23.055C23.055 8.87315 21.5382 7.81141 19.9962 7.81141C18.353 7.81141 16.457 8.92371 16.1031 12.2606ZM34.4561 13.4235L30.3103 14.5863C30.6895 18.1508 32.8382 19.8698 35.4168 19.8698C37.3127 19.8698 39.0318 19.0861 40.1441 17.898C39.9671 20.4512 37.3886 22.3219 34.5825 22.3219C30.6642 22.3219 27.6054 19.0861 27.6054 14.5358C27.6054 10.3394 30.108 6.24407 34.7848 6.24407C37.5908 6.24407 40.3716 7.93781 40.3716 11.123C40.3716 11.3506 40.3716 11.5275 40.3463 11.7297L34.4561 13.4235ZM30.3356 12.2606H37.2875C37.2875 8.87315 35.7707 7.81141 34.2286 7.81141C32.6107 7.81141 30.6895 8.92371 30.3356 12.2606ZM55.1854 22.0186H52.5058V19.6928C51.4188 21.336 49.6745 22.3219 48.0313 22.3219C44.8461 22.3219 41.8884 19.6676 41.8884 14.7127C41.8884 9.60626 44.9472 6.24407 49.2195 6.24407C50.3823 6.24407 51.621 6.49687 52.5311 6.92662V0.404474L55.2107 0V22.0186H55.1854ZM52.5058 18.985V9.4293C51.6716 8.46868 50.4329 7.86197 49.1183 7.86197C46.919 7.86197 44.6944 9.58098 44.6944 13.9291C44.6944 17.4177 46.3123 20.1479 49.447 20.1479C50.5593 20.0973 51.7221 19.6423 52.5058 18.985ZM59.9633 17.6957V17.9233C59.9633 19.4148 61.0503 20.8051 63.1233 20.8051C64.8423 20.8051 66.081 19.8445 66.081 18.4794C66.081 17.4935 65.5501 16.6846 63.9575 16.0273L61.6065 15.0919C59.0027 14.0808 57.6628 12.7662 57.6628 10.7691C57.6628 8.01364 60.1908 6.26935 63.2749 6.26935C66.1821 6.26935 68.4573 7.68501 68.6595 10.1877L65.6007 10.5669V10.3141C65.6007 8.92371 64.7159 7.81141 62.8452 7.81141C61.4042 7.81141 60.1908 8.74675 60.1908 9.98546C60.1908 10.845 60.7217 11.8056 62.6935 12.5893L65.1962 13.5499C67.5977 14.4852 68.7859 15.7492 68.7859 17.5946C68.7859 20.6535 65.904 22.3219 62.7188 22.3219C59.6852 22.3219 56.9045 20.9063 56.9045 18.0497L59.9633 17.6957ZM72.2998 18.2266C71.2633 18.2266 70.4038 19.0861 70.4038 20.1226C70.4038 21.1591 71.2633 22.0186 72.2998 22.0186C73.3362 22.0186 74.1957 21.1591 74.1957 20.1226C74.1957 19.0861 73.3362 18.2266 72.2998 18.2266Z" fill="white"/>
</svg>
