<svg width="22" height="22" viewBox="0 0 22 22" fill="none" xmlns="http://www.w3.org/2000/svg">
<path d="M1 3C1 1.89543 1.89543 1 3 1H6C8.20914 1 10 2.79086 10 5V8C10 9.10457 9.10457 10 8 10H5C2.79086 10 1 8.20914 1 6V3Z" stroke="white" stroke-linecap="round"/>
<path d="M1 16C1 13.7909 2.79086 12 5 12H8C9.10457 12 10 12.8954 10 14V17C10 19.2091 8.20914 21 6 21H3C1.89543 21 1 20.1046 1 19V16Z" stroke="white" stroke-linecap="round"/>
<path d="M12 5C12 2.79086 13.7909 1 16 1H19C20.1046 1 21 1.89543 21 3V6C21 8.20914 19.2091 10 17 10H14C12.8954 10 12 9.10457 12 8V5Z" stroke="white" stroke-linecap="round"/>
<path d="M12 14C12 12.8954 12.8954 12 14 12H17C19.2091 12 21 13.7909 21 16V19C21 20.1046 20.1046 21 19 21H16C13.7909 21 12 19.2091 12 17V14Z" stroke="white" stroke-linecap="round"/>
</svg>
