<svg width="28" height="28" viewBox="0 0 28 28" fill="none" xmlns="http://www.w3.org/2000/svg">
<path d="M11 4H6.85723C5.27927 4 4.00008 5.27919 4.00008 6.85714V11M4.00008 18C4.00008 18.4286 4.00008 21.1429 4.00008 21.1429C4.00008 22.7208 5.27927 24 6.85723 24C6.85723 24 11 24 11.1429 24M17 24H21.1429C22.7209 24 24.0001 22.7208 24.0001 21.1429C24.0001 21.1429 24.0001 18 24.0001 17.5714M24.0001 11V6.85714C24.0001 5.27919 22.7209 4 21.1429 4H17" stroke="white" stroke-linecap="round"/>
<path d="M1.99996 15H26" stroke="white" stroke-linecap="round"/>
</svg>
