<svg width="28" height="28" viewBox="0 0 28 28" fill="none" xmlns="http://www.w3.org/2000/svg">
<path d="M25.1318 3.80908H2.86827C1.28671 3.80908 1.52588e-05 5.09583 1.52588e-05 6.67733V21.3223C1.52588e-05 22.9039 1.28671 24.1906 2.86827 24.1906H25.1317C26.7133 24.1906 28 22.9039 28 21.3223V6.67733C28 5.09583 26.7133 3.80908 25.1318 3.80908ZM1.66155 21.3223V18.7581H4.54492V22.529H2.86827C2.20288 22.529 1.66155 21.9877 1.66155 21.3223ZM26.3385 21.3223C26.3385 21.9877 25.7972 22.529 25.1318 22.529H6.20645V17.9273C6.20645 17.4685 5.83449 17.0965 5.37569 17.0965H1.66155V6.67733C1.66155 6.01194 2.20288 5.47062 2.86827 5.47062H25.1317C25.7971 5.47062 26.3384 6.01194 26.3384 6.67733V21.3223H26.3385Z" fill="#52AFCC"/>
<path d="M16.2204 11.8742C15.8946 12.1973 15.8925 12.7233 16.2156 13.0491C16.7179 13.5555 16.7102 14.3805 16.1984 14.8882C15.8726 15.2113 15.8705 15.7373 16.1936 16.0631C16.356 16.2269 16.5697 16.3088 16.7834 16.3088C16.9948 16.3088 17.2065 16.2286 17.3684 16.0679C18.5307 14.915 18.5427 13.0359 17.3952 11.879C17.0722 11.5533 16.5461 11.5511 16.2204 11.8742Z" fill="#52AFCC"/>
<path d="M19.7255 10.5182C19.4023 10.1924 18.8764 10.1903 18.5506 10.5134C18.2248 10.8366 18.2227 11.3625 18.5458 11.6883C19.7868 12.9394 19.7702 14.9751 18.5089 16.2263C18.1831 16.5494 18.181 17.0754 18.5041 17.4012C18.6666 17.5649 18.8802 17.6469 19.0939 17.6469C19.3054 17.6469 19.517 17.5666 19.679 17.4059C21.5908 15.5095 21.6117 12.4197 19.7255 10.5182Z" fill="#52AFCC"/>
<path d="M20.5249 8.45969C20.1992 8.7828 20.1971 9.30878 20.5202 9.63456C22.8788 12.0124 22.8488 15.88 20.4534 18.256C20.1276 18.5791 20.1255 19.1051 20.4486 19.4309C20.6111 19.5947 20.8247 19.6766 21.0384 19.6766C21.2499 19.6766 21.4615 19.5964 21.6234 19.4357C24.6693 16.4144 24.7035 11.4928 21.6998 8.46445C21.3767 8.13873 20.8507 8.13657 20.5249 8.45969Z" fill="#52AFCC"/>
<path d="M12.0171 8.19629H4.32399C3.86519 8.19629 3.49323 8.56825 3.49323 9.02706C3.49323 9.48586 3.86519 9.85782 4.32399 9.85782H12.0171C12.4759 9.85782 12.8478 9.48586 12.8478 9.02706C12.8478 8.56825 12.4759 8.19629 12.0171 8.19629Z" fill="#52AFCC"/>
<path d="M8.1705 11.4312H4.64002C4.18121 11.4312 3.80925 11.8031 3.80925 12.2619C3.80925 12.7207 4.18121 13.0927 4.64002 13.0927H8.1705C8.6293 13.0927 9.00126 12.7207 9.00126 12.2619C9.00126 11.8031 8.62936 11.4312 8.1705 11.4312Z" fill="#52AFCC"/>
</svg>
