<svg width="60" height="60" viewBox="0 0 60 60" fill="none" xmlns="http://www.w3.org/2000/svg">
<circle cx="30" cy="30" r="30" fill="#1D3726"/>
<path d="M19.5709 17.5681L20.9049 18.2639C21.6188 18.6362 22.412 18.8307 23.2171 18.8307H26.7796M29.1825 22.3739L41.4993 32.7958C42.3664 33.5296 42.4793 34.8255 41.7521 35.6981V35.6981C41.0085 36.5904 39.6761 36.6954 38.8019 35.9305L33.9883 31.7186L37.8798 35.1237C38.7631 35.8965 38.8504 37.2399 38.0746 38.1205V38.1205C37.2948 39.0057 35.9424 39.0841 35.0656 38.2949L31.3184 34.9225L34.501 37.7868C35.2573 38.4674 35.3377 39.6251 34.6827 40.4038V40.4038C34.0066 41.2077 32.8041 41.3046 32.0079 40.6193L29.1113 38.1263L31.0222 39.7535C31.7851 40.4031 31.9011 41.5382 31.2854 42.3287V42.3287C30.5939 43.2164 29.281 43.2977 28.4853 42.502L27.5806 41.5972M13.1631 29.3157C14.2475 29.3157 14.7711 29.9529 14.9605 30.4185C15.0208 30.5666 15.0842 30.7158 15.184 30.8406L16.1 31.9856" stroke="white" stroke-linecap="round" stroke-linejoin="round"/>
<path d="M42.5299 17.0341L40.8865 17.5271C40.2099 17.7301 39.4979 17.7874 38.7975 17.6953L31.8854 16.7858C30.5015 16.6037 29.1045 17.0084 28.0322 17.9019L25.6854 19.8577C24.1931 21.1013 23.489 22.9865 23.51 24.929C23.5183 25.6953 23.4711 26.42 23.3067 26.9127C22.772 28.5147 23.8406 29.8496 25.4426 29.0486C27.0445 28.2477 27.845 25.8448 27.845 24.7768C27.845 23.7088 28.378 22.3739 29.179 22.3739M46.8003 29.3156C45.7323 29.5826 45.4653 29.8496 45.1983 30.3836C44.9848 30.8108 42.7064 32.3415 41.7275 33.0535" stroke="white" stroke-linecap="round" stroke-linejoin="round"/>
<rect x="18.0468" y="29.8502" width="3.65288" height="5.0227" rx="1.82644" transform="rotate(40.8089 18.0468 29.8502)" stroke="white" stroke-linecap="round" stroke-linejoin="round"/>
<rect x="25.7425" y="37.7028" width="3.65288" height="4.10948" rx="1.82644" transform="rotate(40.8089 25.7425 37.7028)" stroke="white" stroke-linecap="round" stroke-linejoin="round"/>
<rect x="23.8751" y="34.2784" width="3.65288" height="5.47931" rx="1.82644" transform="rotate(40.8089 23.8751 34.2784)" stroke="white" stroke-linecap="round" stroke-linejoin="round"/>
<rect x="22.2995" y="30.5094" width="3.65288" height="7.30575" rx="1.82644" transform="rotate(40.8089 22.2995 30.5094)" stroke="white" stroke-linecap="round" stroke-linejoin="round"/>
</svg>
