<svg width="40" height="40" viewBox="0 0 40 40" fill="none" xmlns="http://www.w3.org/2000/svg">
<circle cx="20" cy="20" r="20" fill="#E7F5DE"/>
<path d="M16.0696 5.67102L21.8562 11.4579L23.6775 9.63661L21.6883 7.64735C27.8625 8.17696 32.8096 13.0597 33.4167 19.2083H36C35.1733 9.26201 25.3954 2.84214 16.0696 5.67102ZM17.3225 31.3634L19.3117 33.3526C13.1375 32.823 8.19042 27.9403 7.58333 21.7917H5C5.82667 31.738 15.6046 38.1579 24.9304 35.329L19.1437 29.5421L17.3225 31.3634Z" fill="#283D2E"/>
<path d="M21.213 20L23 19.0281V19.7545L21.4188 20.6138C22.1661 21.289 22.9675 22.3632 22.9675 23.8465C22.9675 26.5985 20.2491 27.9182 20.13 27.9693C20.0866 27.9898 20.0325 28 19.9783 28C19.9242 28 19.8809 27.9898 19.8267 27.9693C19.7184 27.9182 17.4874 26.8338 17.065 24.5831L17.6931 24.2455C17.9097 26.0153 19.4801 27.0384 19.9783 27.3248C20.509 27.0179 22.296 25.8619 22.296 23.8465C22.296 22.4962 21.4946 21.5243 20.8123 20.9412L17.0217 23.0077V22.2813L19.4801 20.9412L21.213 20ZM19.231 19.1304C18.5271 18.5575 17.6606 17.5652 17.6606 16.1637C17.6606 14.1483 19.4477 12.9821 19.9783 12.6752C20.4874 12.9616 22.1119 14.0256 22.2744 15.8568L22.9025 15.509C22.5343 13.1969 20.2383 12.0818 20.13 12.0307C20.0325 11.9898 19.9242 11.9898 19.8267 12.0307C19.7076 12.0921 17 13.4015 17 16.1637C17 17.7084 17.8556 18.8031 18.6245 19.468L17.0108 20.3478V21.0742L18.9061 20.0409L20.3032 19.2839L23 17.8107V17.0844L19.231 19.1304Z" fill="#283D2E"/>
</svg>
