<svg width="28" height="28" viewBox="0 0 28 28" fill="none" xmlns="http://www.w3.org/2000/svg">
<path fill-rule="evenodd" clip-rule="evenodd" d="M14.0001 5.09092C15.4059 5.09092 16.5456 3.95126 16.5456 2.54546C16.5456 1.13966 15.4059 0 14.0001 0C12.5943 0 11.4547 1.13966 11.4547 2.54546C11.4547 3.95126 12.5942 5.09092 14.0001 5.09092ZM14.0001 1.27273C14.703 1.27273 15.2728 1.84253 15.2728 2.54546C15.2728 3.24839 14.703 3.81819 14.0001 3.81819C13.2972 3.81819 12.7274 3.24839 12.7274 2.54546C12.7274 1.84253 13.2972 1.27273 14.0001 1.27273ZM14.9247 5.50399L14.891 5.50478H13.1092C11.1945 5.45174 9.59937 6.96095 9.54632 8.87564L9.54553 8.90932V9.4184C9.54553 9.76841 9.89554 9.95933 10.2455 9.95933H17.7546C18.1046 9.95933 18.4547 9.76841 18.4547 9.4184V8.90932C18.4202 6.9942 16.8398 5.46958 14.9247 5.50399ZM10.8819 8.68654C10.9455 7.73203 11.9319 6.77745 13.1092 6.77745H14.891C16.0683 6.77745 17.0546 7.73197 17.1182 8.68654H10.8819ZM4.29557 15.5272C4.29557 15.8787 4.01067 16.1636 3.6592 16.1636C3.30774 16.1636 3.02284 15.8787 3.02284 15.5272C3.01833 12.1985 4.52888 9.0486 7.12739 6.96813C7.38226 6.79931 7.72124 6.83561 7.93458 7.05461C8.17983 7.30638 8.17459 7.70925 7.92283 7.9545C5.6278 9.79794 4.29356 12.5835 4.29557 15.5272ZM17.1013 24.7174L17.0864 24.7228C15.0937 25.3898 12.9381 25.3898 10.9454 24.7228C10.6117 24.6188 10.2565 24.8035 10.15 25.1365C10.0291 25.4477 10.1834 25.798 10.4946 25.9189C10.5069 25.9236 10.5193 25.928 10.5318 25.9319C12.7917 26.6957 15.2401 26.6957 17.5 25.9319C17.8372 25.8116 18.0197 25.4467 17.9136 25.1046C17.7963 24.7735 17.4326 24.6 17.1013 24.7174ZM23.7047 15.5272C23.709 12.3753 22.1774 9.41891 19.6001 7.60445C19.3101 7.40238 19.2389 7.00347 19.441 6.71352C19.6431 6.42356 20.0419 6.35237 20.3319 6.55444C23.2384 8.61981 24.9686 11.9616 24.9774 15.5272C24.9774 15.8787 24.6925 16.1636 24.341 16.1636C23.9896 16.1636 23.7047 15.8787 23.7047 15.5272ZM4.45464 22.5909C5.86044 22.5909 7.0001 21.4513 7.0001 20.0455C7.0001 18.6397 5.86044 17.5 4.45464 17.5C3.04884 17.5 1.90918 18.6396 1.90918 20.0455C1.90918 21.4513 3.04884 22.5909 4.45464 22.5909ZM4.45464 18.7727C5.15757 18.7727 5.72737 19.3425 5.72737 20.0455C5.72737 20.7484 5.15757 21.3182 4.45464 21.3182C3.75171 21.3182 3.18191 20.7484 3.18191 20.0455C3.18191 19.3425 3.75171 18.7727 4.45464 18.7727ZM5.34555 23.0048L5.37923 23.004C7.29435 22.9696 8.87476 24.4942 8.90911 26.4093V26.9184C8.90911 27.2684 8.55911 27.4593 8.2091 27.4593H0.700008C0.350004 27.4593 0 27.2684 0 26.9184V26.4093L0.000791726 26.3756C0.0538374 24.4609 1.64898 22.9517 3.56368 23.0048H5.34555ZM3.56368 24.2775C2.38644 24.2775 1.40008 25.232 1.33643 26.1865H7.57274C7.50916 25.232 6.52279 24.2775 5.34549 24.2775H3.56368ZM21.0001 20.0455C21.0001 21.4513 22.1397 22.5909 23.5455 22.5909C24.9513 22.5909 26.091 21.4513 26.091 20.0455C26.091 18.6397 24.9513 17.5 23.5455 17.5C22.1397 17.5 21.0001 18.6396 21.0001 20.0455ZM24.8183 20.0455C24.8183 20.7484 24.2485 21.3182 23.5455 21.3182C22.8426 21.3182 22.2728 20.7484 22.2728 20.0455C22.2728 19.3425 22.8426 18.7727 23.5455 18.7727C24.2485 18.7727 24.8183 19.3425 24.8183 20.0455ZM24.4364 23.0048L24.4701 23.004C26.3852 22.9696 27.9656 24.4942 28 26.4093V26.9184C28 27.2684 27.65 27.4593 27.3 27.4593H19.7909C19.4409 27.4593 19.0909 27.2684 19.0909 26.9184V26.4093L19.0917 26.3756C19.1447 24.4609 20.7399 22.9517 22.6546 23.0048H24.4364ZM22.6545 24.2775C21.4773 24.2775 20.4909 25.232 20.4273 26.1865H26.6636C26.6 25.232 25.6136 24.2775 24.4363 24.2775H22.6545Z" fill="#52AFCC"/>
</svg>
