<svg width="54" height="54" viewBox="0 0 54 54" fill="none" xmlns="http://www.w3.org/2000/svg">
<path fill-rule="evenodd" clip-rule="evenodd" d="M16.7337 25.1286C17.9053 26.3002 17.9053 28.1997 16.7337 29.3713L0.965106 45.1398C-0.206467 46.3114 -0.206468 48.2109 0.965104 49.3825L4.61747 53.0349C5.78904 54.2064 7.68853 54.2064 8.86011 53.0349L24.6287 37.2663C25.8003 36.0947 27.6998 36.0947 28.8713 37.2663L44.6399 53.0349C45.8115 54.2064 47.711 54.2064 48.8826 53.0349L52.5349 49.3825C53.7065 48.2109 53.7065 46.3114 52.5349 45.1398L36.7663 29.3713C35.5948 28.1997 35.5948 26.3002 36.7663 25.1286L52.5349 9.36011C53.7064 8.18853 53.7064 6.28904 52.5349 5.11747L48.8825 1.46511C47.7109 0.293533 45.8114 0.293533 44.6399 1.46511L28.8713 17.2336C27.6998 18.4052 25.8003 18.4052 24.6287 17.2336L8.86017 1.46511C7.6886 0.293533 5.7891 0.293533 4.61753 1.46511L0.965171 5.11747C-0.206403 6.28904 -0.206402 8.18853 0.965171 9.36011L16.7337 25.1286Z" fill="#EB5757"/>
</svg>
