<svg id="euUOWN7E1tv1" xmlns="http://www.w3.org/2000/svg" xmlns:xlink="http://www.w3.org/1999/xlink"
    viewBox="0 0 60 60" shape-rendering="geometricPrecision" text-rendering="geometricPrecision">
    <circle id="euUOWN7E1tv2" r="30" transform="matrix(1 0 0 1 30 30)" fill="rgb(29,55,38)"
        stroke="none" stroke-width="1" />
    <path id="euUOWN7E1tv3"
        d="M26.25,1.875C26.7473,1.875,27.2242,2.07254,27.5758,2.42417C27.9275,2.77581,28.125,3.25272,28.125,3.75L28.125,18.75C28.125,19.2473,27.9275,19.7242,27.5758,20.0758C27.2242,20.4275,26.7473,20.625,26.25,20.625L3.75,20.625C3.25272,20.625,2.77581,20.4275,2.42417,20.0758C2.07254,19.7242,1.875,19.2473,1.875,18.75L1.875,3.75C1.875,3.25272,2.07254,2.77581,2.42417,2.42417C2.77581,2.07254,3.25272,1.875,3.75,1.875L26.25,1.875ZM3.75,0C2.75544,0,1.80161,0.395088,1.09835,1.09835C0.395088,1.80161,0,2.75544,0,3.75L0,18.75C0,19.7446,0.395088,20.6984,1.09835,21.4016C1.80161,22.1049,2.75544,22.5,3.75,22.5L26.25,22.5C27.2446,22.5,28.1984,22.1049,28.9016,21.4016C29.6049,20.6984,30,19.7446,30,18.75L30,3.75C30,2.75544,29.6049,1.80161,28.9016,1.09835C28.1984,0.395088,27.2446,0,26.25,0L3.75,0Z"
        transform="matrix(1 0 0 1 15 18.75)" fill="rgb(255,255,255)" stroke="none"
        stroke-width="1" />
    <path id="euUOWN7E1tv4"
        d="M3.75,6.5625C3.75,6.31386,3.84877,6.0754,4.02459,5.89959C4.2004,5.72377,4.43886,5.625,4.6875,5.625L8.4375,5.625C8.68614,5.625,8.9246,5.72377,9.10041,5.89959C9.27623,6.0754,9.375,6.31386,9.375,6.5625L9.375,8.4375C9.375,8.68614,9.27623,8.9246,9.10041,9.10041C8.9246,9.27623,8.68614,9.375,8.4375,9.375L4.6875,9.375C4.43886,9.375,4.2004,9.27623,4.02459,9.10041C3.84877,8.9246,3.75,8.68614,3.75,8.4375L3.75,6.5625ZM3.75,12.1875C3.75,11.9389,3.84877,11.7004,4.02459,11.5246C4.2004,11.3488,4.43886,11.25,4.6875,11.25L14.0625,11.25C14.3111,11.25,14.5496,11.3488,14.7254,11.5246C14.9012,11.7004,15,11.9389,15,12.1875C15,12.4361,14.9012,12.6746,14.7254,12.8504C14.5496,13.0262,14.3111,13.125,14.0625,13.125L4.6875,13.125C4.43886,13.125,4.2004,13.0262,4.02459,12.8504C3.84877,12.6746,3.75,12.4361,3.75,12.1875ZM3.75,15.9375C3.75,15.6889,3.84877,15.4504,4.02459,15.2746C4.2004,15.0988,4.43886,15,4.6875,15L6.5625,15C6.81114,15,7.0496,15.0988,7.22541,15.2746C7.40123,15.4504,7.5,15.6889,7.5,15.9375C7.5,16.1861,7.40123,16.4246,7.22541,16.6004C7.0496,16.7762,6.81114,16.875,6.5625,16.875L4.6875,16.875C4.43886,16.875,4.2004,16.7762,4.02459,16.6004C3.84877,16.4246,3.75,16.1861,3.75,15.9375ZM9.375,15.9375C9.375,15.6889,9.47377,15.4504,9.64959,15.2746C9.8254,15.0988,10.0639,15,10.3125,15L12.1875,15C12.4361,15,12.6746,15.0988,12.8504,15.2746C13.0262,15.4504,13.125,15.6889,13.125,15.9375C13.125,16.1861,13.0262,16.4246,12.8504,16.6004C12.6746,16.7762,12.4361,16.875,12.1875,16.875L10.3125,16.875C10.0639,16.875,9.8254,16.7762,9.64959,16.6004C9.47377,16.4246,9.375,16.1861,9.375,15.9375ZM15,15.9375C15,15.6889,15.0988,15.4504,15.2746,15.2746C15.4504,15.0988,15.6889,15,15.9375,15L17.8125,15C18.0611,15,18.2996,15.0988,18.4754,15.2746C18.6512,15.4504,18.75,15.6889,18.75,15.9375C18.75,16.1861,18.6512,16.4246,18.4754,16.6004C18.2996,16.7762,18.0611,16.875,17.8125,16.875L15.9375,16.875C15.6889,16.875,15.4504,16.7762,15.2746,16.6004C15.0988,16.4246,15,16.1861,15,15.9375ZM20.625,15.9375C20.625,15.6889,20.7238,15.4504,20.8996,15.2746C21.0754,15.0988,21.3139,15,21.5625,15L23.4375,15C23.6861,15,23.9246,15.0988,24.1004,15.2746C24.2762,15.4504,24.375,15.6889,24.375,15.9375C24.375,16.1861,24.2762,16.4246,24.1004,16.6004C23.9246,16.7762,23.6861,16.875,23.4375,16.875L21.5625,16.875C21.3139,16.875,21.0754,16.7762,20.8996,16.6004C20.7238,16.4246,20.625,16.1861,20.625,15.9375Z"
        transform="matrix(1 0 0 1 15.9375 18.75)" fill="rgb(255,255,255)" stroke="none"
        stroke-width="1" />
</svg>