<svg width="24" height="24" viewBox="0 0 24 24" fill="none" xmlns="http://www.w3.org/2000/svg">
<path d="M23.9998 12.0189C23.9998 12.0125 24 12.0062 24 12C24 8.79474 22.7518 5.78119 20.4853 3.51471C18.2188 1.24823 15.2053 0 12 0C8.79474 0 5.78119 1.24823 3.51471 3.51471C1.24823 5.78119 0 8.79474 0 12C0 12.0062 0.000183105 12.0125 0.000183105 12.0189C0.000183105 12.0203 0 12.0218 0 12.0234C0 12.026 0.000366211 12.0284 0.000366211 12.0309C0.00842288 15.2247 1.25555 18.2261 3.51471 20.4853C5.78119 22.7518 8.79474 24 12 24C12.3208 24 12.6396 23.987 12.956 23.9621C12.9587 23.9619 12.9613 23.9617 12.9641 23.9614C15.8058 23.7371 18.4475 22.5231 20.4853 20.4853C22.7444 18.2261 23.9916 15.2247 23.9996 12.0309C23.9996 12.0284 24 12.026 24 12.0234C24 12.022 23.9998 12.0203 23.9998 12.0189ZM21.7011 16.2711H17.6382C18.0386 14.9187 18.2122 13.717 18.2677 12.7264H22.5692C22.4861 13.9634 22.1911 15.1591 21.7011 16.2711ZM2.2998 7.72687H6.35138C5.94507 9.10291 5.77643 10.3224 5.72754 11.3205H1.42786C1.50677 10.066 1.80322 8.85333 2.2998 7.72687ZM12.7029 6.32098V1.56665C13.3083 2.27014 14.6556 3.98163 15.6583 6.32098H12.7029ZM16.1871 7.72687C16.545 8.83173 16.7999 10.0399 16.866 11.3205H12.7029V7.72687H16.1871ZM11.2971 6.32098H8.35437C8.67535 5.57391 9.02289 4.90924 9.35028 4.34784C10.1107 3.04413 10.8792 2.08282 11.2971 1.59705V6.32098ZM11.2971 7.72687V11.3205H7.13489C7.20337 10.0309 7.46722 8.81854 7.82336 7.72687H11.2971ZM1.43079 12.7264H5.73212C5.80096 13.9883 6.03699 15.1807 6.36237 16.2711H2.29889C1.8089 15.1591 1.51392 13.9634 1.43079 12.7264ZM7.13983 12.7264H11.2971V16.2711H7.83344C7.47455 15.1783 7.21545 13.9865 7.13983 12.7264ZM11.2971 17.6768V22.4013C10.6941 21.6927 9.36658 19.9887 8.36792 17.6768H11.2971ZM12.7029 17.6768H15.6354C15.3177 18.4182 14.9745 19.0787 14.651 19.6381C13.8896 20.9546 13.1201 21.9271 12.7029 22.4174V17.6768ZM12.7029 16.2711V12.7264H16.8594C16.7822 13.9964 16.5185 15.1923 16.166 16.2711H12.7029ZM18.2737 11.3205C18.219 10.1266 18.0145 8.92657 17.6609 7.72687H21.7002C22.1968 8.85333 22.4932 10.066 22.5721 11.3205H18.2737ZM20.9476 6.32098H17.178C16.8702 5.53491 16.4993 4.75012 16.0648 3.96863C15.5698 3.07855 15.0659 2.32617 14.6292 1.73328C16.4531 2.1969 18.1258 3.14337 19.4912 4.50879C20.0479 5.06525 20.5345 5.67297 20.9476 6.32098ZM4.50879 4.50879C5.8808 3.13678 7.56299 2.18756 9.39697 1.72632C9.01959 2.23572 8.58893 2.86633 8.15735 3.60297C7.60437 4.54669 7.17169 5.45691 6.8335 6.32098H3.05237C3.46545 5.67297 3.95215 5.06525 4.50879 4.50879ZM3.05109 17.6768H6.84796C7.2561 18.7165 7.72229 19.6284 8.15643 20.3736C8.59186 21.1208 9.026 21.7606 9.40576 22.2761C7.5683 21.8156 5.883 20.8654 4.50879 19.4912C3.9516 18.934 3.46436 18.3257 3.05109 17.6768ZM19.4912 19.4912C18.1203 20.8623 16.4396 21.811 14.6071 22.2728C14.9844 21.7582 15.4153 21.1214 15.847 20.378C16.392 19.4399 16.8199 18.5356 17.1553 17.677H20.9489C20.5356 18.3257 20.0484 18.934 19.4912 19.4912Z" fill="#6C6C6C"/>
</svg>
