<svg width="26" height="26" viewBox="0 0 26 26" fill="none" xmlns="http://www.w3.org/2000/svg">
<path d="M20.3769 9.37106C20.9916 8.40352 21.3281 7.27216 21.3281 6.10303C21.3281 2.74293 18.5945 0.00927734 15.2344 0.00927734H6.09375C2.73366 0.00927734 0 2.74293 0 6.10303V16.6477L4.14035 12.1968H5.61316C5.01734 13.138 4.67188 14.2528 4.67188 15.4468C4.67188 18.8069 7.40553 21.5405 10.7656 21.5405H21.8597L26 25.9914V15.4468C26 12.245 23.518 9.61211 20.3769 9.37106ZM3.47684 10.6733L1.52344 12.7732V6.10303C1.52344 3.58296 3.57368 1.53271 6.09375 1.53271H15.2344C17.7544 1.53271 19.8047 3.58296 19.8047 6.10303C19.8047 7.32731 19.313 8.4966 18.4472 9.35303H10.7656C9.33725 9.35303 8.02227 9.84723 6.98217 10.6733H3.47684ZM24.4766 22.117L22.5232 20.0171H10.7656C8.24555 20.0171 6.19531 17.9668 6.19531 15.4468C6.19531 12.9267 8.24555 10.8765 10.7656 10.8765H19.9062C22.4263 10.8765 24.4766 12.9267 24.4766 15.4468V22.117Z" fill="#52AFCC"/>
</svg>
