<svg width="28" height="22" viewBox="0 0 28 22" fill="none" xmlns="http://www.w3.org/2000/svg">
<path d="M27.9999 10.9724C27.9997 10.5684 27.7618 10.2008 27.3935 10.0354L25.2641 9.07946L27.3937 8.1235C27.762 7.95815 27.9999 7.59029 27.9999 7.18655C27.9999 6.78259 27.762 6.41494 27.3935 6.24939L18.5803 2.29331C18.573 2.28989 18.5657 2.28647 18.5585 2.28348L14.4208 0.426246C14.1534 0.305763 13.8468 0.305977 13.5793 0.426033L13.5796 0.425819L0.606261 6.24939C0.237976 6.41494 1.43573e-07 6.78259 1.43573e-07 7.18655C1.43573e-07 7.59029 0.237976 7.95815 0.606475 8.12371L2.73586 9.07946L0.606475 10.0354C0.238189 10.2008 1.43573e-07 10.5684 1.43573e-07 10.9724C-0.000213479 11.3763 0.237976 11.744 0.606475 11.9095L2.79696 12.8928L0.606261 13.8764C0.237976 14.0417 1.43573e-07 14.4096 1.43573e-07 14.8133C1.43573e-07 15.2173 0.237976 15.5849 0.606475 15.7505L13.5793 21.5738C13.7131 21.6341 13.8566 21.664 14.0002 21.664C14.1435 21.664 14.2869 21.6338 14.4204 21.574L27.3937 15.7503C27.762 15.5849 27.9999 15.217 27.9999 14.8133C27.9999 14.4093 27.762 14.0417 27.3935 13.8761L25.203 12.8928L27.3937 11.9095C27.762 11.7442 27.9999 11.3763 27.9999 10.9724ZM9.79246 3.9241L12.0227 4.92535L9.62605 6.00137L7.42809 4.98559L9.79246 3.9241ZM14.0256 5.8247L16.4511 6.91354L14.0254 8.03463L11.5999 6.91354L14.0256 5.8247ZM20.5975 4.99713L18.4249 6.00116L16.0285 4.92535L18.2331 3.93564L20.5975 4.99713ZM12.0699 8.93825L9.28981 10.2232L6.75859 9.08693L9.61622 7.80413L12.0699 8.93825ZM14.0254 9.84188L16.7519 11.102L14 12.3374L11.2737 11.1138L14.0254 9.84188ZM18.7358 10.2117L15.9807 8.93825L18.4348 7.80413L21.2668 9.07561L18.7358 10.2117ZM23.2699 8.17626L20.4086 6.89175L22.5812 5.88751L25.4749 7.18655L23.2699 8.17626ZM14 2.03547L16.23 3.0365L14.0256 4.02621L11.7956 3.02497L14 2.03547ZM5.44417 5.87619L7.64214 6.89196L4.75567 8.1878L2.52502 7.18655L5.44417 5.87619ZM25.4749 14.8133L14 19.9644L2.52502 14.8133L4.8001 13.7922L13.58 17.7333C13.7135 17.7931 13.8566 17.8232 14 17.823C14.1433 17.823 14.2867 17.7931 14.4204 17.7331L23.1998 13.7922L25.4749 14.8133ZM14 16.1234L2.52502 10.9724L4.73879 9.97859L13.5793 13.9471C13.7131 14.0071 13.8566 14.0372 14.0002 14.0372C14.1435 14.0372 14.2869 14.0071 14.4204 13.9471L23.2612 9.97859L25.4749 10.9724L14 16.1234Z" fill="#52AFCC"/>
</svg>
