<svg width="23" height="23" viewBox="0 0 23 23" fill="none" xmlns="http://www.w3.org/2000/svg">
<path d="M21.3559 23H0.675877C-0.497457 21.275 -0.00856776 17.825 1.11588 16.675C1.65365 16.1479 5.76032 15.0938 7.71588 14.6146C5.66254 13.0333 4.39143 10.1104 4.39143 7.33125C4.39143 3.30625 5.56476 0 10.9914 0C16.4181 0 17.5914 3.30625 17.5914 7.33125C17.5914 10.1104 16.3203 13.0333 14.267 14.6146C16.1737 15.0938 20.3292 16.1479 20.867 16.675C22.0403 17.825 22.4803 21.275 21.3559 23ZM19.9381 17.8729C19.2048 17.4896 15.9292 16.5792 13.1914 15.9562V13.6562C15.0492 12.4104 16.1248 9.775 16.1248 7.33125C16.1248 4.07292 15.2448 1.4375 10.9914 1.4375C6.7381 1.4375 5.8581 4.07292 5.8581 7.37917C5.8581 9.82292 6.93365 12.4583 8.79143 13.7042V16.0042C6.00476 16.6271 2.7781 17.5375 2.04476 17.9208C1.55588 18.4958 1.16477 20.4125 1.4581 21.6104H20.5248C20.8181 20.3646 20.427 18.4958 19.9381 17.8729Z" fill="#6C6C6C"/>
</svg>
