<svg width="32" height="26" viewBox="0 0 32 26" fill="none" xmlns="http://www.w3.org/2000/svg">
<path fill-rule="evenodd" clip-rule="evenodd" d="M4.94256 11.3191C4.68256 11.5732 4.34122 11.7 3.99988 11.7C3.65854 11.7 3.31721 11.5732 3.0572 11.3191L0.390505 8.7191C-0.130168 8.21145 -0.130168 7.38855 0.390505 6.8809C0.910511 6.37325 1.75585 6.37325 2.27586 6.8809L2.66653 7.2618V3.9C2.66653 1.74915 4.46055 0 6.66658 0H25.3335C27.5395 0 29.3335 1.74915 29.3335 3.9V10.4C29.3335 11.1176 28.7362 11.7 28.0002 11.7C27.2642 11.7 26.6668 11.1176 26.6668 10.4V3.9C26.6668 3.18305 26.0688 2.6 25.3335 2.6H6.66658C5.93124 2.6 5.33323 3.18305 5.33323 3.9V7.2618L5.7239 6.8809C6.24391 6.37325 7.08925 6.37325 7.60926 6.8809C8.12993 7.38855 8.12993 8.21145 7.60926 8.7191L4.94256 11.3191ZM27.0574 14.6809C27.5775 14.1732 28.4228 14.1732 28.9428 14.6809L31.6095 17.2809C32.1302 17.7885 32.1302 18.6114 31.6095 19.1191C31.3495 19.3732 31.0082 19.5 30.6668 19.5C30.3255 19.5 29.9841 19.3732 29.7241 19.1191L29.3335 18.7382V22.1C29.3335 24.2508 27.5395 26 25.3334 26H6.66654C4.46051 26 2.66649 24.2508 2.66649 22.1V15.6C2.66649 14.8824 3.26383 14.3 3.99984 14.3C4.73585 14.3 5.33319 14.8824 5.33319 15.6V22.1C5.33319 22.8169 5.93119 23.4 6.66654 23.4H25.3334C26.0688 23.4 26.6668 22.8169 26.6668 22.1V18.7382L26.2761 19.1191C25.7561 19.6267 24.9108 19.6267 24.3907 19.1191C23.8701 18.6114 23.8701 17.7885 24.3907 17.2809L27.0574 14.6809Z" fill="white"/>
</svg>
