<svg width="22" height="28" viewBox="0 0 22 28" fill="none" xmlns="http://www.w3.org/2000/svg">
<path fill-rule="evenodd" clip-rule="evenodd" d="M21.1303 7.52806L13.7643 0.162094C13.6605 0.0582969 13.5198 0 13.373 0H2.99366C1.73316 0 0.707718 1.02545 0.707718 2.28594V25.7141C0.707718 26.9746 1.73316 28 2.99366 28H19.0064C20.2669 28 21.2923 26.9746 21.2923 25.7141V7.91935C21.2923 7.77263 21.234 7.6318 21.1303 7.52806ZM13.9265 6.18669V1.88945L19.403 7.36586H15.1055C14.4553 7.36586 13.9265 6.83692 13.9265 6.18669ZM20.1855 25.7141C20.1855 26.3642 19.6566 26.8932 19.0064 26.8932H2.99366C2.34348 26.8932 1.81448 26.3642 1.81448 25.7141V2.28594C1.81448 1.63576 2.34348 1.10677 2.99366 1.10677H12.8196V6.1868C12.8196 7.44729 13.845 8.47273 15.1055 8.47273H20.1855V25.7141ZM15.7629 14.0551H6.59288C6.27637 14.0551 6.01973 14.3117 6.01973 14.6282C6.01973 14.9447 6.27637 15.2014 6.59288 15.2014H15.7629C16.0795 15.2014 16.336 14.9447 16.336 14.6282C16.336 14.3117 16.0795 14.0551 15.7629 14.0551ZM6.59288 16.527H15.7629C16.0795 16.527 16.336 16.7836 16.336 17.1001C16.336 17.4166 16.0795 17.6732 15.7629 17.6732H6.59288C6.27637 17.6732 6.01973 17.4166 6.01973 17.1001C6.01973 16.7836 6.27637 16.527 6.59288 16.527ZM15.4269 18.9988H6.57311C6.26752 18.9988 6.01973 19.2466 6.01973 19.5522C6.01973 19.8578 6.26752 20.1056 6.57311 20.1056H15.4269C15.7326 20.1056 15.9803 19.8578 15.9803 19.5522C15.9803 19.2466 15.7326 18.9988 15.4269 18.9988ZM6.57311 21.4703H12.5494C12.8551 21.4703 13.1028 21.7181 13.1028 22.0237C13.1028 22.3293 12.8551 22.5771 12.5494 22.5771H6.57311C6.26752 22.5771 6.01973 22.3293 6.01973 22.0237C6.01973 21.7181 6.26752 21.4703 6.57311 21.4703Z" fill="#52AFCC"/>
</svg>
