<svg enable-background="new 0 0 266 700" viewBox="0 0 266 700" xmlns="http://www.w3.org/2000/svg"><path d="m226.4 435.5c-.1-.4-2.9-7.3-3.2-7.9-6.4-15.3-14.6-29.4-24.3-42.4l38.3-22v-48l-67.6 38.8c-9.4-8.1-19.6-15.5-30.5-21.8-5-2.9-9.8-6.1-14.5-9.5l112.6-64.6v-48l-143.9 82.6c-5-6.3-9.5-12.9-13.5-19.9-2.9-5.3-8.3-17.2-10.3-21.9-7.5-19.5-11.1-40.1-10.7-61 .4-21.5 5.1-42.3 13.8-61.9 2-4.3 7.3-14.3 7.6-14.9l1.9-3.4c12-19.7 27.8-36.3 47-49.3 20.4 13.8 37.5 32.3 49.6 53.7 11.2 19.8 18.1 42.1 20.2 64.8 8.5-5.8 22.7-13.5 38.2-19.2-4.6-26.8-15.9-52.8-30.7-75.5-17.2-26.5-39.9-47.9-67.4-63.8-2.5-1.5-5.1-2.9-8-4.4l-1.8-1-1.8 1c-2.9 1.5-5.4 2.9-8 4.4-38 22-67.1 55-84.1 95.4-.1.3-3.1 7.6-3.2 7.9-7.9 20.8-12.1 42.8-12.5 65.3v8.9c.4 22.3 4.7 44.3 12.5 65.4.1.4 2.9 7.3 3.2 7.9 6.3 14.9 14.2 28.7 23.6 41.4l-35.5 20.4v48l64.5-37c9.7 8.4 20.2 16.1 31.5 22.7 4.6 2.7 9.1 5.6 13.4 8.8l-109.4 62.5v48l141-80.9c5.3 6.6 10.1 13.5 14.3 20.9 2.9 5.3 8.3 17.2 10.3 21.9 7.5 19.5 11.1 40.1 10.7 61-.4 21.5-5.1 42.3-13.8 61.9-2 4.3-7.3 14.3-7.6 14.9l-1.9 3.4c-12 19.7-27.8 36.3-47 49.3-20.4-13.8-37.5-32.3-49.6-53.7-10.3-18.3-17.1-38.8-19.6-59.8-14 8.2-27.4 14.5-36.7 18.6 4.9 25.3 14.7 49.7 28.7 71.3 17.2 26.5 39.9 47.9 67.4 63.8 2.5 1.5 5.1 2.9 8 4.4l1.8 1 1.7-1.1c2.9-1.5 5.4-2.9 8-4.4 38.1-21.9 67.2-55 84.2-95.4.2-.4 3.1-7.8 3.2-7.9 7.9-20.9 12.1-42.9 12.5-65.3 0-.4 0-8.6 0-8.9-.6-22.5-4.8-44.5-12.6-65.5z"/></svg>