<svg width="38" height="44" viewBox="0 0 38 44" fill="none" xmlns="http://www.w3.org/2000/svg">
<path d="M37.39 11.4058C35.4385 10.2024 33.1943 9.55194 30.8851 9.55194C24.9981 9.55194 20.0218 13.6826 18.7859 19.2768C19.1111 19.537 19.4689 19.7972 19.8267 20.0249C20.2495 19.8297 20.7048 19.6671 21.1277 19.537C21.1602 19.537 21.1927 19.5045 21.1927 19.5045C22.4287 19.1467 23.6971 18.9516 24.9656 18.9516C27.6977 18.9516 30.4297 19.7972 32.6739 21.456C33.8773 20.4802 34.8856 19.3094 35.6987 17.9433C36.9021 15.9593 37.4551 13.7151 37.39 11.4058Z" fill="#238C32"/>
<path d="M35.7335 25.9118C34.1724 23.1797 31.6354 21.1632 28.6106 20.2525C25.9761 19.4394 23.179 19.537 20.6421 20.5127C23.0164 22.0088 24.8378 24.1555 25.9111 26.7574C25.9111 26.79 26.1062 27.2453 26.1388 27.3104C26.6917 28.7415 26.9519 30.2701 27.0169 31.7988V32.4167C27.0169 32.8396 26.9844 33.2624 26.9194 33.6852C28.1878 34.108 29.5213 34.3357 30.8874 34.3357C33.1966 34.3357 35.4408 33.6852 37.3923 32.4818C37.4574 30.1725 36.9044 27.9283 35.7335 25.9118Z" fill="#238C32"/>
<path d="M19.5043 24.6108C19.179 24.3506 18.8213 24.0904 18.4635 23.8627C18.1708 23.9928 17.8455 24.1229 17.5203 24.2205C15.4712 24.9035 13.2921 25.0987 11.1454 24.7409C9.1289 24.4156 7.20995 23.6025 5.58371 22.4316C4.3803 23.4074 3.37203 24.5783 2.55891 25.9118C1.42055 27.8958 0.835105 30.1725 0.900155 32.4818C2.85164 33.6852 5.09584 34.3357 7.40509 34.3357C10.5925 34.3357 13.6173 33.1323 15.9591 30.9206C17.7479 29.1643 18.9839 26.9851 19.5043 24.6108Z" fill="#238C32"/>
<path d="M17.6493 23.3429C15.275 21.8468 13.4537 19.7001 12.3803 17.0982C12.3478 17.0331 12.1852 16.5778 12.1852 16.5452C11.6323 15.1141 11.3721 13.5855 11.307 12.0568V11.4389C11.307 11.016 11.3396 10.5932 11.4046 10.1704C10.1361 9.74757 8.80263 9.5199 7.43659 9.5199C5.12734 9.5199 2.88313 10.1704 0.931649 11.3738C0.8666 13.6831 1.41952 15.9273 2.59041 17.9438C4.15159 20.6759 6.68852 22.6924 9.71332 23.6031C12.3153 24.4162 15.1124 24.3186 17.6493 23.3429Z" fill="#238C32"/>
<path d="M25.2623 37.1655C25.2623 37.1329 25.4574 36.6451 25.4574 36.6451C25.9778 35.279 26.238 33.8479 26.2705 32.3843V31.7989C26.238 30.3353 25.9778 28.9042 25.4574 27.5381C25.4574 27.5056 25.2623 27.0503 25.2623 27.0177C24.1564 24.3832 22.27 22.2366 19.7656 20.8055C18.1394 19.8623 16.8058 18.5288 15.8952 16.9351C15.7 16.5773 15.3422 15.8292 15.2121 15.504C14.7243 14.2355 14.4966 12.902 14.5291 11.536C14.5616 10.1374 14.8544 8.77139 15.4398 7.50293C15.5699 7.2102 15.9277 6.55971 15.9277 6.52718L16.0578 6.29951C16.8384 4.99852 17.8792 3.92521 19.1151 3.07957C20.4486 3.99026 21.5544 5.19367 22.335 6.59223C23.0506 7.89322 23.5059 9.32431 23.6686 10.8204C24.2215 10.4301 25.0671 9.94228 26.0754 9.58451C25.7827 7.82817 25.1322 6.13689 24.1564 4.67328C23.0506 2.94947 21.5544 1.55091 19.7656 0.510115C19.603 0.412541 19.4403 0.314967 19.2452 0.217393L19.1476 0.152344L19.0175 0.217393C18.8224 0.314967 18.6597 0.412541 18.4971 0.510115C16.0252 1.9412 14.1063 4.08783 13.0005 6.72233C13.0005 6.75486 12.8053 7.2102 12.8053 7.24273C12.2849 8.60877 12.0247 10.0399 11.9922 11.5035V12.0889C12.0247 13.5525 12.2849 14.9836 12.8053 16.3496C12.8053 16.3822 13.0005 16.8375 13.0005 16.87C14.1063 19.5045 15.9927 21.6512 18.4971 23.0823C20.1234 24.0255 21.4569 25.359 22.3676 26.9527C22.5627 27.3105 22.9205 28.0585 23.0506 28.3838C23.5385 29.6522 23.7661 30.9858 23.7336 32.3518C23.7011 33.7504 23.4084 35.1164 22.8229 36.3849C22.6928 36.6776 22.335 37.3281 22.335 37.3606L22.2049 37.5883C21.4243 38.8893 20.3836 39.9626 19.1476 40.8082C17.8141 39.8975 16.7083 38.6941 15.9277 37.2955C15.2447 36.0921 14.8218 34.7586 14.6592 33.3926C13.7485 33.9455 12.8704 34.3358 12.2524 34.596C12.5776 36.2548 13.2281 37.8485 14.1388 39.247C15.2447 40.9708 16.7408 42.3694 18.5297 43.4102C18.6923 43.5078 18.8549 43.6053 19.05 43.7029L19.1801 43.768L19.2777 43.7029C19.4729 43.6053 19.6355 43.5078 19.7981 43.4102C22.27 41.9466 24.1564 39.8 25.2623 37.1655Z" fill="#2EE53F"/>
</svg>
