<svg width="30" height="27" viewBox="0 0 30 27" fill="none" xmlns="http://www.w3.org/2000/svg">
<path fill-rule="evenodd" clip-rule="evenodd" d="M22.0878 0.332875L29.6635 7.87099C30.1105 8.31566 30.1124 9.039 29.6678 9.48596L22.0919 17.1001C21.766 17.4276 21.2745 17.5265 20.8466 17.3503C20.4186 17.1737 20.1396 16.7571 20.1396 16.2946V12.7444C18.4355 12.7502 15.3521 13.4183 12.8569 17.5681L12.4005 18.3287C12.1919 18.6771 11.8176 18.8834 11.4213 18.8834C11.352 18.8834 11.2819 18.877 11.2119 18.864C10.7428 18.7769 10.3777 18.4072 10.2959 17.9366L10.1436 17.061C10.141 17.0458 10.1387 17.0302 10.1364 17.0149C9.97802 15.9508 9.45683 10.6022 14.1697 6.67972C14.5085 6.36946 16.3839 4.81233 20.1396 4.56412V1.14229C20.1396 0.680864 20.4172 0.26473 20.8436 0.0877177C21.2692 -0.0897049 21.7603 0.00697517 22.0878 0.332875ZM22.4243 11.688V13.5272L27.2429 8.68422L22.4238 3.88988V5.67272C22.4238 6.30354 21.9126 6.81483 21.2817 6.81483H21.1675C17.4347 6.81483 15.7314 8.34683 15.7146 8.36242C15.6911 8.38596 15.6812 8.39413 15.6576 8.41384L15.6526 8.41802C13.4109 10.274 12.6464 12.5674 12.4154 14.2738C15.9978 10.0928 20.1461 10.3483 21.4641 10.5603C22.0177 10.6494 22.4243 11.1272 22.4243 11.688ZM24.3656 21.0537C24.3656 20.4228 24.8769 19.9115 25.5077 19.9115C26.1385 19.9115 26.6498 20.4228 26.6498 21.0537V25.4319C26.6498 26.0627 26.1385 26.574 25.5077 26.574H1.14211C0.511291 26.574 0 26.0627 0 25.4319V6.39626C0 5.76544 0.511291 5.25415 1.14211 5.25421H9.13709C9.76791 5.25421 10.2792 5.7655 10.2792 6.39632C10.2792 7.02714 9.76791 7.53843 9.13709 7.53843H2.28429V24.2897H24.3656V21.0537Z" fill="white"/>
</svg>
