<svg width="24" height="24" viewBox="0 0 24 24" fill="none" xmlns="http://www.w3.org/2000/svg">
<path fill-rule="evenodd" clip-rule="evenodd" d="M22.5938 12.7031H23.2969C23.6852 12.7031 24 13.0179 24 13.4062V19.0312C24 19.4196 23.6852 19.7344 23.2969 19.7344H22.5938V21.8906C22.5938 23.0537 21.6475 24 20.4844 24H3.51562C2.57629 24 1.69153 23.6239 1.02411 22.9411C0.363647 22.2656 0 21.3765 0 20.4375V7.03125C0 5.48035 1.2616 4.21875 2.8125 4.21875H4.26562V0.703125C4.26562 0.314758 4.58038 0 4.96875 0H16.2656C16.654 0 16.9688 0.314758 16.9688 0.703125V4.21875H19.0781C20.2412 4.21875 21.1875 5.16504 21.1875 6.32812V8.55835C22.006 8.84875 22.5938 9.63025 22.5938 10.5469V12.7031ZM19.7812 6.32812C19.7812 5.94049 19.4658 5.625 19.0781 5.625H16.9688V8.4375H19.7812V6.32812ZM11.2969 8.4375H15.5625V1.40625H11.2969V8.4375ZM8.48438 1.40625V8.4375H9.89062V1.40625H8.48438ZM7.07812 1.40625H5.67188V8.4375H7.07812V1.40625ZM4.26562 5.625H2.8125C2.03705 5.625 1.40625 6.2558 1.40625 7.03125C1.40625 7.8067 2.03705 8.4375 2.8125 8.4375H4.26562V5.625ZM20.4844 22.5938C20.872 22.5938 21.1875 22.2783 21.1875 21.8906V19.7344H19.0781C17.1396 19.7344 15.5625 18.1573 15.5625 16.2188C15.5625 14.2802 17.1396 12.7031 19.0781 12.7031H21.1875V10.5469C21.1875 10.1592 20.872 9.84375 20.4844 9.84375H2.8125C2.30035 9.84375 1.82025 9.70551 1.40625 9.46545V20.4375C1.40625 21.6063 2.37213 22.5938 3.51562 22.5938H20.4844ZM19.0781 18.3281H22.5938V14.1094H19.0781C17.915 14.1094 16.9688 15.0557 16.9688 16.2188C16.9688 17.3818 17.915 18.3281 19.0781 18.3281ZM19.0781 16.9219C19.4665 16.9219 19.7812 16.6071 19.7812 16.2188C19.7812 15.8304 19.4665 15.5156 19.0781 15.5156C18.6898 15.5156 18.375 15.8304 18.375 16.2188C18.375 16.6071 18.6898 16.9219 19.0781 16.9219Z" fill="#6C6C6C"/>
</svg>
