<svg width="28" height="28" viewBox="0 0 28 28" fill="none" xmlns="http://www.w3.org/2000/svg">
<path d="M11.1436 24.064C11.7532 24.9965 12.8053 25.6112 14.001 25.6112C15.1967 25.6112 16.2488 24.9965 16.8584 24.064C17.3336 23.3372 18.3324 22.9077 19.1869 23.0632C20.2524 23.257 21.3905 22.942 22.2131 22.1195C23.038 21.2944 23.3524 20.1521 23.155 19.0839C23.0017 18.255 23.4019 17.3035 24.1015 16.8332C25.0134 16.2201 25.6121 15.1799 25.6121 14.0001C25.6121 12.8253 25.0185 11.7889 24.1131 11.1748C23.7399 10.9216 23.4579 10.5357 23.2887 10.1211C23.1196 9.70662 23.051 9.23352 23.1406 8.79151C23.3602 7.70723 23.0493 6.53865 22.2096 5.69892C21.3665 4.85579 20.1919 4.54586 19.1039 4.77057C18.2684 4.94312 17.2898 4.55315 16.8022 3.85303C16.1853 2.96733 15.1607 2.389 14.001 2.389C12.8412 2.389 11.8166 2.96733 11.1998 3.85303C10.7122 4.55315 9.7335 4.94312 8.89808 4.77057C7.81009 4.54586 6.6355 4.85579 5.79237 5.69892C4.95264 6.53865 4.6418 7.70723 4.86139 8.79151C4.95091 9.23352 4.8824 9.70662 4.71325 10.1211C4.5441 10.5357 4.26207 10.9216 3.88882 11.1748C2.98343 11.7889 2.38987 12.8253 2.38987 14.0001C2.38987 15.1799 2.98856 16.2201 3.90049 16.8332C4.60002 17.3035 5.00023 18.255 4.84699 19.0839C4.64953 20.1521 4.96397 21.2944 5.78885 22.1195C6.61143 22.942 7.7496 23.257 8.81507 23.0632C9.66957 22.9077 10.6684 23.3371 11.1436 24.064Z" stroke="white" stroke-width="0.777778"/>
<circle cx="14" cy="14.0001" r="7.61111" stroke="white" stroke-width="0.777778" stroke-dasharray="9.33 1.56"/>
<path d="M13.4774 10.6241C13.7149 10.2295 14.2871 10.2295 14.5246 10.6241L15.0951 11.5722C15.289 11.8944 15.6054 12.1242 15.9718 12.2091L17.0497 12.4587C17.4985 12.5627 17.6753 13.1069 17.3733 13.4547L16.648 14.2903C16.4014 14.5743 16.2806 14.9461 16.3131 15.3208L16.4088 16.4232C16.4486 16.8821 15.9857 17.2184 15.5616 17.0387L14.5428 16.6071C14.1965 16.4604 13.8055 16.4604 13.4592 16.6071L12.4404 17.0387C12.0162 17.2184 11.5533 16.8821 11.5932 16.4232L11.6888 15.3208C11.7213 14.9461 11.6005 14.5743 11.354 14.2903L10.6286 13.4547C10.3267 13.1069 10.5035 12.5627 10.9522 12.4587L12.0302 12.2091C12.3966 12.1242 12.7129 11.8944 12.9068 11.5722L13.4774 10.6241Z" stroke="white" stroke-width="0.777778"/>
</svg>
