<svg width="28" height="28" viewBox="0 0 28 28" fill="none" xmlns="http://www.w3.org/2000/svg">
<path d="M22.9988 13.9997C22.9988 11.6128 22.0506 9.32359 20.3628 7.63576C18.6749 5.94794 16.3857 4.99973 13.9988 4.99973C11.6118 4.99973 9.32266 5.94794 7.63483 7.63576C6.93762 8.33297 6.36662 9.13279 5.93652 9.99973M22.9988 13.9997L25.9988 10.9997M22.9988 13.9997L19.9988 10.9997" stroke="white" stroke-width="0.777778" stroke-linecap="round" stroke-linejoin="round"/>
<path d="M5.00121 14.0003C5.00121 16.3872 5.94942 18.6764 7.63725 20.3642C9.32508 22.0521 11.6143 23.0003 14.0012 23.0003C16.3882 23.0003 18.6773 22.0521 20.3652 20.3642C21.0624 19.667 21.6334 18.8672 22.0635 18.0003M5.00121 14.0003L2.00121 17.0003M5.00121 14.0003L8.00121 17.0003" stroke="white" stroke-width="0.777778" stroke-linecap="round" stroke-linejoin="round"/>
</svg>
