<svg width="67" height="80" viewBox="0 0 67 80" fill="none" xmlns="http://www.w3.org/2000/svg">
<path opacity="0.6" d="M32.4629 37.4646C32.7612 37.3453 33.0595 37.1663 33.3577 37.047C33.1191 36.868 32.8805 36.689 32.6419 36.5101C32.5225 36.868 32.4629 37.1663 32.4629 37.4646Z" fill="#1D3726"/>
<path d="M66.9446 20.6412C63.3652 18.4339 59.2488 17.2408 55.0132 17.2408C44.2153 17.2408 35.0878 24.8172 32.8208 35.0782C33.4174 35.5555 34.0736 36.0327 34.7298 36.4503C35.5054 36.0924 36.3406 35.7941 37.1161 35.5555C37.1758 35.5555 37.2354 35.4958 37.2354 35.4958C39.5024 34.8396 41.829 34.4816 44.1556 34.4816C49.1668 34.4816 54.178 36.0327 58.2943 39.0752C60.5016 37.2855 62.351 35.1379 63.8424 32.6323C66.0497 28.9932 67.0639 24.8769 66.9446 20.6412Z" fill="#238C32"/>
<path d="M63.9008 47.2482C61.0373 42.2371 56.384 38.5383 50.8359 36.8679C46.0037 35.3765 40.8732 35.5555 36.22 37.3452C40.5749 40.0894 43.9157 44.0268 45.8844 48.7993C45.8844 48.859 46.2423 49.6942 46.302 49.8135C47.3162 52.4384 47.7934 55.2423 47.9127 58.0462V59.1796C47.9127 59.9552 47.8531 60.7307 47.7338 61.5063C50.0604 62.2818 52.5063 62.6994 55.0119 62.6994C59.2476 62.6994 63.3639 61.5063 66.9433 59.2989C67.0626 55.0633 66.0485 50.947 63.9008 47.2482Z" fill="#238C32"/>
<path opacity="0.6" d="M34.5501 42.3564C34.2518 42.4758 33.9536 42.6547 33.6553 42.774C33.8939 42.953 34.1922 43.132 34.4308 43.311C34.4308 43.0723 34.4905 42.7144 34.5501 42.3564Z" fill="#1D3726"/>
<path d="M34.1328 44.8621C33.5362 44.3848 32.88 43.9076 32.2237 43.49C31.6868 43.7286 31.0903 43.9672 30.4937 44.1462C26.7353 45.399 22.7383 45.7569 18.8009 45.1007C15.1022 44.5041 11.5824 43.0127 8.59958 40.8651C6.39227 42.6548 4.5429 44.8024 3.05148 47.2483C0.963482 50.8874 -0.110343 55.0634 0.00897104 59.2991C3.58839 61.5064 7.70472 62.6995 11.9404 62.6995C17.7867 62.6995 23.3348 60.4922 27.6301 56.4355C30.9113 53.214 33.1782 49.217 34.1328 44.8621Z" fill="#238C32"/>
<path d="M30.7324 42.5354C26.3775 39.7912 23.0367 35.8538 21.068 31.0813C21.0083 30.962 20.7101 30.1268 20.7101 30.0671C19.6959 27.4422 19.2186 24.6383 19.0993 21.8345V20.701C19.0993 19.9254 19.159 19.1499 19.2783 18.3744C16.9517 17.5988 14.5057 17.1812 12.0001 17.1812C7.7645 17.1812 3.64816 18.3744 0.0687457 20.5817C-0.0505682 24.8173 0.9636 28.9336 3.11125 32.6324C5.97479 37.6436 10.628 41.3423 16.1761 43.0127C20.9487 44.5041 26.0792 44.3251 30.7324 42.5354Z" fill="#238C32"/>
<path d="M44.6916 67.8896C44.6916 67.83 45.0495 66.9351 45.0495 66.9351C46.0041 64.4295 46.4813 61.8046 46.541 59.1201V58.0462C46.4813 55.3617 46.0041 52.7368 45.0495 50.2312C45.0495 50.1715 44.6916 49.3363 44.6916 49.2767C42.6633 44.4444 39.2032 40.5071 34.6096 37.8822C31.6267 36.1521 29.1808 33.7062 27.5104 30.783C27.1525 30.1268 26.4962 28.7547 26.2576 28.1581C25.3627 25.8315 24.9451 23.3855 25.0048 20.8799C25.0645 18.3147 25.6014 15.8091 26.6752 13.4825C26.9138 12.9456 27.5701 11.7524 27.5701 11.6928L27.8087 11.2752C29.2405 8.88889 31.1495 6.92021 33.4164 5.36913C35.8624 7.03952 37.8907 9.24683 39.3225 11.8121C40.6349 14.1984 41.4701 16.8233 41.7684 19.5675C42.7826 18.8516 44.3337 17.9567 46.183 17.3005C45.6461 14.079 44.453 10.9769 42.6633 8.29232C40.6349 5.1305 37.8907 2.56525 34.6096 0.656227C34.3113 0.477256 34.013 0.298285 33.6551 0.119314L33.4761 0L33.2375 0.119314C32.8795 0.298285 32.5812 0.477256 32.283 0.656227C27.749 3.28113 24.2293 7.21849 22.2009 12.0507C22.2009 12.1104 21.843 12.9456 21.843 13.0052C20.8885 15.5108 20.4112 18.1357 20.3516 20.8203V21.8941C20.4112 24.5787 20.8885 27.2036 21.843 29.7092C21.843 29.7688 22.2009 30.604 22.2009 30.6637C24.2293 35.4959 27.6894 39.4333 32.283 42.0582C35.2658 43.7882 37.7117 46.2342 39.3821 49.1573C39.7401 49.8136 40.3963 51.1857 40.6349 51.7823C41.5298 54.1089 41.9474 56.5548 41.8877 59.0604C41.8281 61.6257 41.2912 64.1312 40.2173 66.4579C39.9787 66.9948 39.3225 68.1879 39.3225 68.2476L39.0839 68.6652C37.6521 71.0515 35.7431 73.0201 33.4761 74.5712C31.0302 72.9008 29.0018 70.6935 27.5701 68.1283C26.3173 65.921 25.5417 63.475 25.2434 60.9694C23.573 61.9836 21.9623 62.6995 20.8288 63.1767C21.4254 66.2192 22.6185 69.1424 24.2889 71.7077C26.3173 74.8695 29.0615 77.4347 32.3426 79.3438C32.6409 79.5227 32.9392 79.7017 33.2971 79.8807L33.5358 80L33.7147 79.8807C34.0727 79.7017 34.371 79.5227 34.6692 79.3438C39.2032 76.6592 42.6633 72.7218 44.6916 67.8896Z" fill="#2EE53F"/>
</svg>
