<?xml version="1.0" encoding="UTF-8"?>
<svg viewBox="0 0 255 90" xmlns="http://www.w3.org/2000/svg">
<path d="m86.218 48.143v0.5369c0 3.5197 2.5652 6.8009 7.4571 6.8009 4.0566 0 6.9796-2.267 6.9796-5.4885 0-2.3266-1.2526-4.2356-5.0109-5.7867l-5.5481-2.2073c-6.1447-2.3863-9.3065-5.4884-9.3065-10.201 0-6.5026 5.9657-10.619 13.244-10.619 6.8607 0 12.23 3.3408 12.707 9.2469l-7.2182 0.8948v-0.5966c0-3.2811-2.088-5.906-6.5027-5.906-3.4004 0-6.2639 2.2073-6.2639 5.1305 0 2.0283 1.2528 4.2953 5.906 6.1447l5.906 2.2669c5.6678 2.267 8.4718 5.2498 8.4718 9.6048 0 7.2185-6.801 11.156-14.318 11.156-7.1589 0-13.721-3.3408-13.721-10.082l7.2185-0.8948zm30.724-7.3378c0.894 8.4116 5.965 12.468 12.05 12.468 4.475 0 8.531-1.8494 11.156-4.6533-0.417 6.0254-6.502 10.5-13.124 10.5-9.247 0-16.466-7.6361-16.466-18.374 0-9.903 5.906-19.568 16.943-19.568 6.622 0 13.184 3.997 13.184 11.514 0 0.5369 0 0.9545-0.06 1.4318l-23.683 6.6816zm0.059-5.4885h16.406c0-7.994-3.58-10.5-7.219-10.5-3.877 0-8.352 2.6249-9.187 10.5zm43.311 2.7442l-9.784 2.7443c0.895 8.4116 5.966 12.468 12.051 12.468 4.474 0 8.531-1.8494 11.156-4.6533-0.418 6.0254-6.503 10.44-13.125 10.44-9.246 0-16.465-7.6361-16.465-18.374 0-9.903 5.906-19.567 16.943-19.567 6.622 0 13.184 3.997 13.184 11.514 0 0.5369 0 0.9545-0.06 1.4317l-13.9 3.997zm-9.724-2.7442h16.406c0-7.994-3.58-10.5-7.219-10.5-3.818 0-8.352 2.6249-9.187 10.5zm58.643 23.028h-6.324v-5.4884c-2.565 3.8777-6.681 6.2043-10.559 6.2043-7.517 0-14.497-6.264-14.497-17.957 0-12.051 7.219-19.985 17.301-19.985 2.744 0 5.667 0.5965 7.815 1.6107v-15.391l6.324-0.95451v51.961h-0.06zm-6.324-7.1588v-22.55c-1.968-2.2669-4.892-3.6987-7.994-3.6987-5.19 0-10.44 4.0567-10.44 14.318 0 8.2326 3.818 14.676 11.216 14.676 2.625-0.1193 5.369-1.1931 7.218-2.7442zm17.599-3.0425v0.5369c0 3.5197 2.565 6.8009 7.457 6.8009 4.057 0 6.98-2.267 6.98-5.4885 0-2.3266-1.253-4.2356-5.011-5.7867l-5.548-2.2073c-6.145-2.3863-9.307-5.4884-9.307-10.201 0-6.5026 5.966-10.619 13.244-10.619 6.861 0 12.23 3.3408 12.707 9.2469l-7.218 0.8948v-0.5966c0-3.2811-2.088-5.906-6.503-5.906-3.4 0-6.264 2.2073-6.264 5.1305 0 2.0283 1.253 4.2953 5.906 6.1447l5.906 2.2669c5.667 2.2073 8.471 5.1902 8.471 9.5451 0 7.2185-6.801 11.156-14.317 11.156-7.159 0-13.721-3.3408-13.721-10.082l7.218-0.8352zm29.113 1.2528c-2.446 0-4.475 2.0283-4.475 4.4742 0 2.446 2.029 4.4743 4.475 4.4743s4.474-2.0283 4.474-4.4743c0-2.4459-2.028-4.4742-4.474-4.4742z" fill="#FDFFF2"/>
<path d="m171.8 84.295v1.7051h-7.875v-12.683h1.969v10.978h5.906zm1.52 1.7051v-9.2461h1.899v9.2461h-1.899zm1.732-10.916c-0.217 0.2109-0.478 0.3164-0.782 0.3164-0.305 0-0.566-0.1055-0.783-0.3164-0.211-0.211-0.316-0.4658-0.316-0.7647 0-0.3047 0.105-0.5625 0.316-0.7734 0.217-0.2109 0.478-0.3164 0.783-0.3164 0.31 0 0.571 0.1055 0.782 0.3164 0.217 0.2109 0.325 0.4687 0.325 0.7734 0 0.2989-0.108 0.5537-0.325 0.7647zm6.047 9.3779c0.744 0 1.339-0.2812 1.784-0.8437 0.451-0.5625 0.677-1.3184 0.677-2.2676s-0.226-1.711-0.677-2.2852c-0.445-0.5742-1.04-0.8613-1.784-0.8613-0.733 0-1.319 0.2842-1.758 0.8525-0.434 0.5684-0.65 1.333-0.65 2.294 0 0.9609 0.216 1.7197 0.65 2.2764 0.439 0.5566 1.025 0.8349 1.758 0.8349zm0.017 5.0186c-1.078 0-1.992-0.2578-2.742-0.7735-0.744-0.5156-1.175-1.1777-1.292-1.9863h1.907c0.135 0.3867 0.399 0.6973 0.791 0.9316 0.399 0.2344 0.868 0.3516 1.407 0.3516 0.732 0 1.309-0.1934 1.731-0.5801 0.422-0.3808 0.633-0.8906 0.633-1.5293v-1.5205h-0.035c-0.264 0.5098-0.657 0.9141-1.178 1.2129-0.516 0.2988-1.099 0.4483-1.749 0.4483-1.166 0-2.098-0.4219-2.795-1.2657-0.697-0.8496-1.046-1.9922-1.046-3.4277 0-1.4531 0.349-2.6045 1.046-3.4541 0.703-0.8555 1.649-1.2832 2.839-1.2832 0.65 0 1.233 0.1553 1.749 0.4658 0.516 0.3047 0.914 0.7266 1.195 1.2656h0.035v-1.582h1.846v9.0791c0 1.1016-0.395 1.9834-1.186 2.6455-0.786 0.668-1.837 1.002-3.156 1.002zm6.293-3.4805v-12.683h1.881v4.9834h0.044c0.258-0.5449 0.636-0.9639 1.134-1.2569 0.498-0.2988 1.096-0.4482 1.793-0.4482 1.008 0 1.799 0.3105 2.373 0.9316 0.58 0.6211 0.87 1.459 0.87 2.5137v5.959h-1.907v-5.5898c0-0.6914-0.173-1.2276-0.519-1.6084-0.34-0.3809-0.841-0.5713-1.503-0.5713-0.697 0-1.251 0.2226-1.661 0.6679-0.404 0.4395-0.606 1.0254-0.606 1.7578v5.3438h-1.899zm10.486-11.435h1.907v2.1885h1.758v1.5029h-1.758v5.0977c0 0.3984 0.091 0.6914 0.272 0.8789 0.182 0.1875 0.466 0.2812 0.853 0.2812 0.281 0 0.489-0.0146 0.624-0.0439v1.5029c-0.235 0.0586-0.586 0.0879-1.055 0.0879-0.931 0-1.599-0.1904-2.004-0.5713-0.398-0.3867-0.597-1.0283-0.597-1.9248v-5.3086h-1.345v-1.5029h1.345v-2.1885zm16.347 1.8721l-2.733 9.5625h-1.863l-3.419-12.683h2.048l2.346 9.9316h0.071l2.68-9.9316h1.828l2.69 9.9316h0.07l2.347-9.9316h2.048l-3.428 12.683h-1.855l-2.742-9.5625h-0.088zm11.47 8.2178c0.668 0 1.228-0.2022 1.679-0.6065 0.457-0.4101 0.685-0.914 0.685-1.5117v-0.7295l-2.276 0.1406c-0.568 0.0411-1.008 0.1817-1.318 0.4219-0.305 0.2344-0.457 0.5508-0.457 0.9492 0 0.4043 0.152 0.7295 0.457 0.9756 0.31 0.2403 0.72 0.3604 1.23 0.3604zm-0.527 1.5029c-0.909 0-1.65-0.2578-2.224-0.7734-0.568-0.5157-0.853-1.1866-0.853-2.0127 0-0.8086 0.299-1.4502 0.897-1.9248 0.598-0.4805 1.444-0.75 2.54-0.8086l2.531-0.1494v-0.712c0-0.5156-0.164-0.9169-0.492-1.2041-0.328-0.2929-0.782-0.4394-1.362-0.4394-0.539 0-0.979 0.1201-1.319 0.3603-0.334 0.2403-0.545 0.5713-0.632 0.9932h-1.793c0.052-0.8555 0.422-1.5527 1.107-2.0918 0.686-0.5391 1.588-0.8086 2.707-0.8086s2.01 0.2754 2.672 0.8262c0.668 0.5508 1.002 1.289 1.002 2.2148v6.3721h-1.819v-1.5205h-0.044c-0.264 0.5098-0.665 0.917-1.204 1.2217-0.534 0.3047-1.105 0.457-1.714 0.457zm6.697-0.1582v-12.683h1.898v12.683h-1.898zm3.92 0v-12.683h1.898v12.683h-1.898zm9.325-7.2158c-0.416-0.4453-0.952-0.668-1.608-0.668-0.657 0-1.202 0.2256-1.635 0.6768-0.434 0.4453-0.674 1.0224-0.721 1.7314h4.623c-0.023-0.7148-0.243-1.2949-0.659-1.7402zm0.65 4.5h1.802c-0.135 0.8496-0.568 1.5439-1.301 2.083-0.732 0.539-1.626 0.8086-2.68 0.8086-1.354 0-2.42-0.4248-3.199-1.2744-0.774-0.8555-1.161-2.0157-1.161-3.4805 0-1.4531 0.387-2.6221 1.161-3.5068 0.779-0.8848 1.819-1.3272 3.12-1.3272 1.277 0 2.291 0.419 3.041 1.2569 0.75 0.832 1.125 1.9511 1.125 3.3574v0.6504h-6.531v0.1142c0 0.8086 0.226 1.4561 0.677 1.9424s1.055 0.7295 1.811 0.7295c0.533 0 0.99-0.1231 1.371-0.3691 0.381-0.2461 0.636-0.5743 0.764-0.9844zm3.938-8.7188h1.907v2.1885h1.758v1.5029h-1.758v5.0977c0 0.3984 0.091 0.6914 0.273 0.8789 0.181 0.1875 0.465 0.2812 0.852 0.2812 0.281 0 0.489-0.0146 0.624-0.0439v1.5029c-0.234 0.0586-0.586 0.0879-1.055 0.0879-0.931 0-1.599-0.1904-2.003-0.5713-0.399-0.3867-0.598-1.0283-0.598-1.9248v-5.3086h-1.345v-1.5029h1.345v-2.1885z" fill="#fff"/>
<path d="m32.463 37.465c0.2983-0.1193 0.5966-0.2983 0.8948-0.4176-0.2386-0.179-0.4772-0.358-0.7158-0.5369-0.1194 0.3579-0.179 0.6562-0.179 0.9545z" fill="#1D3726" opacity=".6"/>
<path d="m66.945 20.641c-3.5794-2.2073-7.6958-3.4004-11.931-3.4004-10.798 0-19.925 7.5764-22.192 17.837 0.5966 0.4773 1.2528 0.9545 1.909 1.3721 0.7756-0.3579 1.6108-0.6562 2.3863-0.8948 0.0597 0 0.1193-0.0597 0.1193-0.0597 2.267-0.6562 4.5936-1.0142 6.9202-1.0142 5.0112 0 10.022 1.5511 14.139 4.5936 2.2073-1.7897 4.0567-3.9373 5.5481-6.4429 2.2073-3.6391 3.2215-7.7554 3.1022-11.991z" fill="#238C32"/>
<path d="m63.901 47.248c-2.8635-5.0111-7.5168-8.7099-13.065-10.38-4.8322-1.4914-9.9627-1.3124-14.616 0.4773 4.3549 2.7442 7.6957 6.6816 9.6644 11.454 0 0.0597 0.3579 0.8949 0.4176 1.0142 1.0142 2.6249 1.4914 5.4288 1.6107 8.2327v1.1334c0 0.7756-0.0596 1.5511-0.1789 2.3267 2.3266 0.7755 4.7725 1.1931 7.2781 1.1931 4.2357 0 8.352-1.1931 11.931-3.4005 0.1193-4.2356-0.8948-8.3519-3.0425-12.051z" fill="#238C32"/>
<path d="m34.55 42.356c-0.2983 0.1194-0.5965 0.2983-0.8948 0.4176 0.2386 0.179 0.5369 0.358 0.7755 0.537 0-0.2387 0.0597-0.5966 0.1193-0.9546z" fill="#1D3726" opacity=".6"/>
<path d="m34.133 44.862c-0.5966-0.4773-1.2528-0.9545-1.9091-1.3721-0.5369 0.2386-1.1334 0.4772-1.73 0.6562-3.7584 1.2528-7.7554 1.6107-11.693 0.9545-3.6987-0.5966-7.2185-2.088-10.201-4.2356-2.2073 1.7897-4.0567 3.9373-5.5481 6.3832-2.088 3.6391-3.1618 7.8151-3.0425 12.051 3.5794 2.2073 7.6957 3.4004 11.931 3.4004 5.8463 0 11.394-2.2073 15.69-6.264 3.2812-3.2215 5.5481-7.2185 6.5027-11.573z" fill="#238C32"/>
<path d="m30.732 42.535c-4.3549-2.7442-7.6957-6.6816-9.6644-11.454-0.0597-0.1193-0.3579-0.9545-0.3579-1.0142-1.0142-2.6249-1.4915-5.4288-1.6108-8.2326v-1.1335c0-0.7756 0.0597-1.5511 0.179-2.3266-2.3266-0.7756-4.7726-1.1932-7.2782-1.1932-4.2356 0-8.3519 1.1932-11.931 3.4005-0.11931 4.2356 0.89485 8.3519 3.0425 12.051 2.8635 5.0112 7.5168 8.7099 13.065 10.38 4.7726 1.4914 9.9031 1.3124 14.556-0.4773z" fill="#238C32"/>
<path d="m44.692 67.89c0-0.0596 0.3579-0.9545 0.3579-0.9545 0.9546-2.5056 1.4318-5.1305 1.4915-7.815v-1.0739c-0.0597-2.6845-0.5369-5.3094-1.4915-7.815 0-0.0597-0.3579-0.8949-0.3579-0.9545-2.0283-4.8323-5.4884-8.7696-10.082-11.394-2.9829-1.7301-5.4288-4.176-7.0992-7.0992-0.3579-0.6562-1.0142-2.0283-1.2528-2.6249-0.8949-2.3266-1.3125-4.7726-1.2528-7.2782 0.0597-2.5652 0.5966-5.0708 1.6704-7.3974 0.2386-0.5369 0.8949-1.7301 0.8949-1.7897l0.2386-0.4176c1.4318-2.3863 3.3408-4.355 5.6077-5.9061 2.446 1.6704 4.4743 3.8777 5.9061 6.443 1.3124 2.3863 2.1476 5.0112 2.4459 7.7554 1.0142-0.7159 2.5653-1.6108 4.4146-2.267-0.5369-3.2215-1.73-6.3236-3.5197-9.0082-2.0284-3.1618-4.7726-5.7271-8.0537-7.6361-0.2983-0.17897-0.5966-0.35794-0.9545-0.53691l-0.179-0.11931-0.2386 0.11931c-0.358 0.17897-0.6563 0.35794-0.9545 0.53691-4.534 2.6249-8.0537 6.5623-10.082 11.394 0 0.0597-0.3579 0.8949-0.3579 0.9545-0.9545 2.5056-1.4318 5.1305-1.4914 7.8151v1.0738c0.0596 2.6846 0.5369 5.3095 1.4914 7.8151 0 0.0596 0.3579 0.8948 0.3579 0.9545 2.0284 4.8322 5.4885 8.7696 10.082 11.394 2.9828 1.73 5.4287 4.176 7.0991 7.0991 0.358 0.6563 1.0142 2.0284 1.2528 2.625 0.8949 2.3266 1.3125 4.7725 1.2528 7.2781-0.0596 2.5653-0.5965 5.0708-1.6704 7.3975-0.2386 0.5369-0.8948 1.73-0.8948 1.7897l-0.2386 0.4176c-1.4318 2.3863-3.3408 4.3549-5.6078 5.906-2.4459-1.6704-4.4743-3.8777-5.906-6.4429-1.2528-2.2073-2.0284-4.6533-2.3267-7.1589-1.6704 1.0142-3.2811 1.7301-4.4146 2.2073 0.5966 3.0425 1.7897 5.9657 3.4601 8.531 2.0284 3.1618 4.7726 5.727 8.0537 7.6361 0.2983 0.1789 0.5966 0.3579 0.9545 0.5369l0.2387 0.1193 0.1789-0.1193c0.358-0.179 0.6563-0.358 0.9545-0.5369 4.534-2.6846 7.9941-6.622 10.022-11.454z" fill="#2EE53F"/>
</svg>
