<svg width="176" height="54" viewBox="0 0 176 54" fill="none" xmlns="http://www.w3.org/2000/svg">
<path d="M7.21825 42.1429V42.6798C7.21825 46.1995 9.7835 49.4807 14.6754 49.4807C18.732 49.4807 21.6552 47.2137 21.6552 43.9922C21.6552 41.6656 20.4024 39.7566 16.6441 38.2055L11.096 35.9982C4.95129 33.6119 1.78946 30.5098 1.78946 25.7969C1.78946 19.2943 7.75517 15.1779 15.0333 15.1779C21.8939 15.1779 27.263 18.5187 27.7402 24.4248L20.5218 25.3196V24.723C20.5218 21.4419 18.4338 18.817 14.0191 18.817C10.6187 18.817 7.75516 21.0243 7.75516 23.9475C7.75516 25.9758 9.00796 28.2428 13.6612 30.0922L19.5672 32.3591C25.2347 34.6261 28.0385 37.6089 28.0385 41.9639C28.0385 49.1824 21.2376 53.1198 13.7209 53.1198C6.56202 53.1198 -0.000244141 49.779 -0.000244141 43.0377L7.21825 42.1429ZM37.9416 34.8051C38.8364 43.2167 43.9073 47.2734 49.9923 47.2734C54.4666 47.2734 58.5232 45.424 61.1481 42.6201C60.7305 48.6455 54.6455 53.1198 48.0236 53.1198C38.7768 53.1198 31.5583 45.4837 31.5583 34.7454C31.5583 24.8424 37.4643 15.1779 48.5009 15.1779C55.1228 15.1779 61.6851 19.1749 61.6851 26.6917C61.6851 27.2286 61.6851 27.6462 61.6254 28.1235L37.9416 34.8051ZM38.0013 29.3166H54.4069C54.4069 21.3226 50.8275 18.817 47.1884 18.817C43.3107 18.817 38.8364 21.4419 38.0013 29.3166ZM81.3122 32.0608L71.5285 34.8051C72.4233 43.2167 77.4942 47.2734 83.5792 47.2734C88.0534 47.2734 92.1101 45.424 94.735 42.6201C94.3174 48.6455 88.2324 53.0601 81.6105 53.0601C72.3637 53.0601 65.1452 45.424 65.1452 34.6857C65.1452 24.7827 71.0512 15.1183 82.0877 15.1183C88.7097 15.1183 95.2719 19.1153 95.2719 26.6321C95.2719 27.169 95.2719 27.5866 95.2123 28.0638L81.3122 32.0608ZM71.5881 29.3166H87.9938C87.9938 21.3226 84.4144 18.817 80.7753 18.817C76.9572 18.817 72.4233 21.4419 71.5881 29.3166ZM130.231 52.3442H123.907V46.8558C121.342 50.7335 117.226 53.0601 113.348 53.0601C105.831 53.0601 98.8514 46.7961 98.8514 35.1034C98.8514 23.0526 106.07 15.1183 116.152 15.1183C118.896 15.1183 121.819 15.7148 123.967 16.729V1.33751L130.291 0.382996V52.3442H130.231ZM123.907 45.1854V22.635C121.939 20.3681 119.015 18.9363 115.913 18.9363C110.723 18.9363 105.473 22.993 105.473 33.254C105.473 41.4866 109.291 47.9296 116.689 47.9296C119.314 47.8103 122.058 46.7365 123.907 45.1854ZM141.506 42.1429V42.6798C141.506 46.1995 144.071 49.4807 148.963 49.4807C153.02 49.4807 155.943 47.2137 155.943 43.9922C155.943 41.6656 154.69 39.7566 150.932 38.2055L145.384 35.9982C139.239 33.6119 136.077 30.5098 136.077 25.7969C136.077 19.2943 142.043 15.1779 149.321 15.1779C156.182 15.1779 161.551 18.5187 162.028 24.4248L154.81 25.3196V24.723C154.81 21.4419 152.722 18.817 148.307 18.817C144.907 18.817 142.043 21.0243 142.043 23.9475C142.043 25.9758 143.296 28.2428 147.949 30.0922L153.855 32.3591C159.522 34.5664 162.326 37.5493 162.326 41.9042C162.326 49.1227 155.525 53.0601 148.009 53.0601C140.85 53.0601 134.288 49.7193 134.288 42.9781L141.506 42.1429ZM170.619 43.3957C168.173 43.3957 166.144 45.424 166.144 47.8699C166.144 50.3159 168.173 52.3442 170.619 52.3442C173.065 52.3442 175.093 50.3159 175.093 47.8699C175.093 45.424 173.065 43.3957 170.619 43.3957Z" fill="#FDFFF2"/>
</svg>
