<svg width="24" height="24" viewBox="0 0 24 24" fill="none" xmlns="http://www.w3.org/2000/svg">
    <path
        d="M0.5 7C0.5 3.41015 3.41015 0.5 7 0.5H17C20.5899 0.5 23.5 3.41015 23.5 7V17C23.5 20.5899 20.5899 23.5 17 23.5H7C3.41015 23.5 0.5 20.5899 0.5 17V7Z"
        stroke="white" stroke-linecap="round" stroke-linejoin="round" />
    <path
        d="M4.66626 6.66667C4.66626 6.29848 4.96474 6 5.33293 6H13.3329C13.7011 6 13.9996 6.29848 13.9996 6.66667C13.9996 7.03486 13.7011 7.33333 13.3329 7.33333H5.33293C4.96474 7.33333 4.66626 7.03486 4.66626 6.66667Z"
        fill="white" />
    <path
        d="M17.3329 12C17.3329 11.2636 17.9299 10.6667 18.6663 10.6667C19.4026 10.6667 19.9996 11.2636 19.9996 12C19.9996 12.7364 19.4026 13.3333 18.6663 13.3333C17.9299 13.3333 17.3329 12.7364 17.3329 12Z"
        fill="white" />
    <path fill-rule="evenodd" clip-rule="evenodd"
        d="M18.6663 8C16.4571 8 15 9.79086 15 12C15 14.2091 16.4571 16 18.6663 16H24V8H18.6663ZM23 9H18.6663C17.1935 9 15.9996 10.5272 15.9996 12C15.9996 13.4728 17.1935 15 18.6663 15H23V9Z"
        fill="white" />
</svg>
