<?xml version="1.0" encoding="UTF-8"?>
<svg fill="none" viewBox="0 0 20 50" xmlns="http://www.w3.org/2000/svg">
<path d="m13.774 25l5.5596-2.9156v2.179l-4.9194 2.578c2.3249 2.0256 4.8183 5.2481 4.8183 9.6982 0 8.2558-8.4572 12.215-8.8279 12.368-0.1348 0.0614-0.3032 0.0921-0.47171 0.0921-0.16847 0-0.30325-0.0307-0.47172-0.0921-0.33694-0.1534-7.278-3.4066-8.5921-10.158l1.9543-1.0128c0.67388 5.3094 5.5596 8.3785 7.1095 9.2378 1.651-0.9207 7.2106-4.3887 7.2106-10.435 0-4.0511-2.4934-6.9667-4.6161-8.7161l-11.793 6.1995v-2.179l7.6486-4.0205 5.391-2.8235zm-6.166-2.6087c-2.1901-1.7187-4.8857-4.6956-4.8857-8.9003 0-6.046 5.5596-9.5447 7.2106-10.465 1.5836 0.85933 6.6378 4.0512 7.1432 9.5447l1.9543-1.0434c-1.1456-6.9361-8.2888-10.281-8.6258-10.435-0.3032-0.12276-0.64018-0.12276-0.94343 0-0.37064 0.18414-8.7942 4.1125-8.7942 12.399 0 4.6343 2.6619 7.9182 5.0542 9.9131l-5.0205 2.6394v2.179l5.8965-3.0997 4.3466-2.2711 8.3899-4.4195v-2.179l-11.726 6.1381z" fill="#1F992A" stroke="#1F992A" stroke-linecap="round" stroke-linejoin="round" stroke-width=".5"/>
</svg>
