<svg width="35" height="35" viewBox="0 0 35 35" fill="none" xmlns="http://www.w3.org/2000/svg">
<g opacity="0.2" filter="url(#filter0_b)">
<rect width="35" height="35" rx="8" fill="white"/>
</g>
<path d="M18.8514 17.5003L21.3333 16.1843V17.1678L19.1372 18.3315C20.1751 19.2458 21.2882 20.7005 21.2882 22.7092C21.2882 26.4357 17.5126 28.2228 17.3472 28.2921C17.287 28.3198 17.2118 28.3337 17.1366 28.3337C17.0614 28.3337 17.0012 28.3198 16.926 28.2921C16.7756 28.2228 13.6769 26.7544 13.0903 23.7066L13.9627 23.2495C14.2635 25.6461 16.4446 27.0314 17.1366 27.4193C17.8736 27.0037 20.3556 25.4383 20.3556 22.7092C20.3556 20.8805 19.2425 19.5645 18.2948 18.7748L13.0301 21.5732V20.5896L16.4446 18.7748L18.8514 17.5003ZM16.0987 16.3228C15.1209 15.547 13.9176 14.2032 13.9176 12.3053C13.9176 9.5762 16.3995 7.99692 17.1366 7.58131C17.8436 7.96921 20.0999 9.40996 20.3255 11.8897L21.198 11.4187C20.6865 8.28784 17.4976 6.77782 17.3472 6.70855C17.2118 6.65314 17.0614 6.65314 16.926 6.70855C16.7605 6.79167 13 8.5649 13 12.3053C13 14.3972 14.1883 15.8795 15.2563 16.78L13.015 17.9713V18.9549L15.6474 17.5557L17.5878 16.5306L21.3333 14.5357V13.5521L16.0987 16.3228Z" fill="white" stroke="white" stroke-width="0.5" stroke-linecap="round" stroke-linejoin="round"/>
<defs>
<filter id="filter0_b" x="-40" y="-40" width="115" height="115" filterUnits="userSpaceOnUse" color-interpolation-filters="sRGB">
<feFlood flood-opacity="0" result="BackgroundImageFix"/>
<feGaussianBlur in="BackgroundImage" stdDeviation="20"/>
<feComposite in2="SourceAlpha" operator="in" result="effect1_backgroundBlur"/>
<feBlend mode="normal" in="SourceGraphic" in2="effect1_backgroundBlur" result="shape"/>
</filter>
</defs>
</svg>
