<svg width="28" height="28" viewBox="0 0 28 28" fill="none" xmlns="http://www.w3.org/2000/svg">
<g opacity="0.6">
<path d="M9.08062 12.9999L12.3479 5.76524C12.8332 4.69067 13.9764 3.814 15.0405 4.32174C15.9637 4.76222 16.1935 5.65497 16.1935 6.99998V11H21.9447C22.2393 10.9967 22.5311 11.0565 22.7999 11.1752C23.0687 11.2939 23.308 11.4687 23.5013 11.6875C23.6946 11.9062 23.8373 12.1638 23.9194 12.4422C24.0016 12.7206 24.0212 13.0133 23.977 13.2999L22.5747 22.2999C22.5012 22.7768 22.2551 23.2115 21.8816 23.5239C21.5082 23.8363 21.0326 24.0053 20.5425 23.9999H9.08062M9.08062 12.9999H6.03225C5.49326 12.9999 4.97635 13.2107 4.59523 13.5857C4.21411 13.9608 4 14.4695 4 14.9999V21.9999C4 22.5303 4.21411 23.039 4.59523 23.4141C4.97635 23.7892 5.49326 23.9999 6.03225 23.9999H9.08062M9.08062 12.9999V18.4999V23.9999" stroke="white"/>
</g>
</svg>
