<svg width="12" height="16" viewBox="0 0 12 16" fill="none" xmlns="http://www.w3.org/2000/svg">
<path d="M6.80033 15C6.80033 15.442 6.44201 15.8003 6 15.8003C5.55799 15.8003 5.19967 15.442 5.19967 15L6.80033 15ZM5.43408 0.434084C5.74663 0.121536 6.25337 0.121536 6.56592 0.434084L11.6592 5.52733C11.9717 5.83988 11.9717 6.34662 11.6592 6.65916C11.3466 6.97171 10.8399 6.97171 10.5273 6.65916L6 2.13183L1.47267 6.65916C1.16012 6.97171 0.653383 6.97171 0.340835 6.65916C0.0282887 6.34662 0.0282888 5.83988 0.340836 5.52733L5.43408 0.434084ZM5.19967 15L5.19967 1L6.80033 1L6.80033 15L5.19967 15Z" fill="white"/>
</svg>
