<svg width="12" height="16" viewBox="0 0 12 16" fill="none" xmlns="http://www.w3.org/2000/svg">
<path d="M6.80033 1C6.80033 0.557992 6.44201 0.199673 6 0.199673C5.55799 0.199673 5.19967 0.557992 5.19967 1L6.80033 1ZM5.43408 15.5659C5.74663 15.8785 6.25337 15.8785 6.56592 15.5659L11.6592 10.4727C11.9717 10.1601 11.9717 9.65338 11.6592 9.34084C11.3466 9.02829 10.8399 9.02829 10.5273 9.34084L6 13.8682L1.47267 9.34084C1.16012 9.02829 0.653383 9.02829 0.340835 9.34084C0.0282887 9.65338 0.0282888 10.1601 0.340836 10.4727L5.43408 15.5659ZM5.19967 1L5.19967 15L6.80033 15L6.80033 1L5.19967 1Z" fill="white"/>
</svg>
