<svg width="32" height="30" viewBox="0 0 32 30" fill="none" xmlns="http://www.w3.org/2000/svg">
<path d="M21.6791 0.555751C21.5345 0.420251 21.3536 0.32997 21.1584 0.296027C20.9632 0.262083 20.7624 0.285958 20.5806 0.364712C20.3988 0.443466 20.2441 0.573661 20.1354 0.739265C20.0266 0.904868 19.9687 1.09865 19.9687 1.29675V5.74275C19.6779 5.74925 19.3391 5.76713 18.9612 5.80125C17.7141 5.91663 16.0232 6.22863 14.2682 7.02406C10.6916 8.645 7.01587 12.2029 6.16275 19.6666C6.13952 19.8709 6.17885 20.0774 6.27556 20.2589C6.37226 20.4404 6.52177 20.5883 6.70432 20.6829C6.88687 20.7776 7.09386 20.8146 7.29791 20.7891C7.50195 20.7636 7.69345 20.6767 7.84706 20.54C11.3692 17.4086 14.6696 16.0607 17.0576 15.4871C18.0115 15.2526 18.987 15.1165 19.9687 15.0808V19.578C19.9687 19.7761 20.0266 19.9699 20.1354 20.1355C20.2441 20.3011 20.3988 20.4313 20.5806 20.51C20.7624 20.5888 20.9632 20.6127 21.1584 20.5787C21.3536 20.5448 21.5345 20.4545 21.6791 20.319L31.4291 11.1784C31.5304 11.0834 31.6112 10.9686 31.6664 10.8412C31.7216 10.7137 31.7501 10.5763 31.7501 10.4374C31.7501 10.2985 31.7216 10.161 31.6664 10.0336C31.6112 9.90614 31.5304 9.79137 31.4291 9.69638L21.6791 0.555751ZM20.8674 7.79025L20.8836 7.79188H20.8852H20.8844C21.0256 7.80583 21.168 7.79008 21.3027 7.74563C21.4374 7.70119 21.5612 7.62904 21.6663 7.53382C21.7714 7.43861 21.8554 7.32244 21.9128 7.19281C21.9703 7.06317 22 6.92293 22 6.78113V3.64081L29.2491 10.4374L22 17.2339V14.0936C22 13.5818 21.6311 13.1511 21.1103 13.0861H21.1079L21.1046 13.0853L21.0965 13.0845L21.0737 13.0821C20.9629 13.0712 20.8519 13.063 20.7406 13.0577C20.5221 13.0463 20.2109 13.0398 19.8192 13.0528C18.7279 13.0981 17.6438 13.2521 16.5831 13.5127C14.4056 14.0351 11.6276 15.1141 8.63844 17.2933C9.84581 12.3533 12.5896 10.0149 15.1059 8.87413C16.6017 8.1965 18.0594 7.92513 19.1481 7.82438C19.6909 7.774 20.1361 7.7675 20.4408 7.77238C20.5831 7.77441 20.7254 7.78037 20.8674 7.79025ZM5.95312 1.49988C4.60632 1.49988 3.31468 2.03489 2.36235 2.98722C1.41002 3.93956 0.875 5.2312 0.875 6.578V24.0468C0.875 25.3936 1.41002 26.6852 2.36235 27.6375C3.31468 28.5899 4.60632 29.1249 5.95312 29.1249H23.4219C24.7687 29.1249 26.0603 28.5899 27.0126 27.6375C27.965 26.6852 28.5 25.3936 28.5 24.0468V22.2186C28.5 21.9493 28.393 21.6909 28.2025 21.5005C28.0121 21.31 27.7537 21.203 27.4844 21.203C27.215 21.203 26.9567 21.31 26.7662 21.5005C26.5758 21.6909 26.4687 21.9493 26.4687 22.2186V24.0468C26.4687 24.8548 26.1477 25.6298 25.5763 26.2012C25.0049 26.7726 24.23 27.0936 23.4219 27.0936H5.95312C5.14504 27.0936 4.37006 26.7726 3.79866 26.2012C3.22726 25.6298 2.90625 24.8548 2.90625 24.0468V6.578C2.90625 5.76992 3.22726 4.99494 3.79866 4.42354C4.37006 3.85214 5.14504 3.53113 5.95312 3.53113H12.6562C12.9256 3.53113 13.1839 3.42412 13.3744 3.23366C13.5649 3.04319 13.6719 2.78486 13.6719 2.5155C13.6719 2.24614 13.5649 1.98781 13.3744 1.79735C13.1839 1.60688 12.9256 1.49988 12.6562 1.49988H5.95312Z" fill="white"/>
</svg>
