<svg width="20" height="20" viewBox="0 0 20 20" fill="none" xmlns="http://www.w3.org/2000/svg">
<path d="M16 1C15.2044 1 14.4413 1.31607 13.8787 1.87868C13.3161 2.44129 13 3.20435 13 4V16C13 16.7956 13.3161 17.5587 13.8787 18.1213C14.4413 18.6839 15.2044 19 16 19C16.7956 19 17.5587 18.6839 18.1213 18.1213C18.6839 17.5587 19 16.7956 19 16C19 15.2044 18.6839 14.4413 18.1213 13.8787C17.5587 13.3161 16.7956 13 16 13H4C3.20435 13 2.44129 13.3161 1.87868 13.8787C1.31607 14.4413 1 15.2044 1 16C1 16.7956 1.31607 17.5587 1.87868 18.1213C2.44129 18.6839 3.20435 19 4 19C4.79565 19 5.55871 18.6839 6.12132 18.1213C6.68393 17.5587 7 16.7956 7 16V4C7 3.20435 6.68393 2.44129 6.12132 1.87868C5.55871 1.31607 4.79565 1 4 1C3.20435 1 2.44129 1.31607 1.87868 1.87868C1.31607 2.44129 1 3.20435 1 4C1 4.79565 1.31607 5.55871 1.87868 6.12132C2.44129 6.68393 3.20435 7 4 7H16C16.7956 7 17.5587 6.68393 18.1213 6.12132C18.6839 5.55871 19 4.79565 19 4C19 3.20435 18.6839 2.44129 18.1213 1.87868C17.5587 1.31607 16.7956 1 16 1Z" stroke="white" stroke-linecap="round" stroke-linejoin="round"/>
</svg>
