<?xml version="1.0" encoding="UTF-8"?>
<svg fill="none" viewBox="0 0 92 90" xmlns="http://www.w3.org/2000/svg">
<path d="m25.512 29.373v31.255h40.979v-31.255h-40.979zm9.1033 4.883h22.769c-4.033 2.4817-8.0664 7.9296-12.099 8.524-3.5566-2.8415-7.1135-5.6827-10.67-8.524zm26.999 2.8747v18.614h-31.225v-18.613c5.2027 4.1579 10.405 8.316 15.608 12.474 5.206-4.158 10.412-8.3166 15.617-12.475zm-15.237-37.117c-4.2652 0.044726-8.6317 0.39185-12.689 1.735-2.4137 1.2473-0.7538 5.2579 1.8385 4.4564 6.3995-1.6377 13.151-1.6826 19.616-0.40683 2.6392 0.17968 3.4182-3.9292 0.8961-4.7276-3.1574-0.73706-6.4235-1.0209-9.6622-1.057zm25.043 7.8459c-2.6315-0.28188-3.5667 3.6427-1.2009 4.7039 5.2635 3.8552 9.102 9.3183 12.21 14.961 1.7424 2.0845 5.2959-0.408 3.9499-2.7639-3.3447-6.4284-7.9351-12.385-13.909-16.57-0.3113-0.20581-0.6858-0.28388-1.0501-0.33037zm-52.114 1.1944c-2.0741 0.21968-3.3796 2.1519-4.9016 3.4074-3.5664 3.5299-6.3972 7.7422-8.8522 12.097-0.87334 1.508-2.003 3.7596-0.0853 4.9942 1.7377 1.2199 3.6219-0.373 4.0872-2.0978 2.2478-4.1665 4.9312-8.1654 8.2878-11.525 1.2172-1.5486 3.6507-2.3221 3.7854-4.5066-0.0237-1.2425-1.0797-2.3199-2.3212-2.3686zm69.442 31.294c-2.1792-0.0951-2.8378 2.314-2.4671 4.0593 0.3679 6.7653-1.3311 13.55-4.5612 19.482-0.9319 2.4758 2.7789 4.4045 4.2695 2.219 4.1169-7.2535 5.8949-15.848 4.9768-24.125-0.3029-0.9433-1.2365-1.6019-2.218-1.6358zm-85.299 1.8803c-2.1862-0.1679-2.916 2.2167-2.5579 3.9758 0.33164 6.8054 2.069 13.586 5.2482 19.619 1.4917 2.1847 5.2016 0.2548 4.2687-2.2207-3.0062-6.0162-4.63-12.696-4.7251-19.42-0.21123-1.0604-1.1545-1.8857-2.2339-1.954zm69.41 33.382c-2.1542 0.2792-3.5138 2.3589-5.4231 3.2782-4.2768 2.8306-9.1456 4.6103-14.064 5.9089-2.44 1.1953-0.8661 5.2406 1.7427 4.4948 7.139-1.6325 13.926-4.9464 19.528-9.6653 1.3226-1.4729 0.1967-4.0097-1.7841-4.0166zm-54.127 0.1195c-2.3893 0.0037-3.1661 3.4683-1.1176 4.598 4.703 3.9585 10.361 6.6328 16.272 8.2278 1.7474 0.502 4.1872 1.594 5.3487-0.4997 1.0011-1.7755-0.64-3.6641-2.4592-3.7485-5.5697-1.4546-11.05-3.6287-15.534-7.3257-0.7347-0.6015-1.4758-1.333-2.5093-1.2519z" fill="url(#a)"/>
<defs>
<linearGradient id="a" x1="-8.5" x2="130" y1="93.5" y2="8.0003" gradientUnits="userSpaceOnUse">
<stop stop-color="#2D803A" offset="0"/>
<stop stop-color="#2D953B" stop-opacity="0" offset="1"/>
</linearGradient>
</defs>
</svg>
