<svg width="119" height="121" viewBox="0 0 119 121" fill="none" xmlns="http://www.w3.org/2000/svg">
<g opacity="0.2">
<path opacity="0.6" d="M63.0332 72.7433C63.6124 72.5116 64.1915 72.1641 64.7707 71.9325C64.3074 71.585 63.844 71.2375 63.3807 70.89C63.149 71.585 63.0332 72.1641 63.0332 72.7433Z" fill="#2B4835"/>
<path d="M129.981 40.0783C123.031 35.7924 115.038 33.4758 106.814 33.4758C85.8483 33.4758 68.1258 48.1866 63.7241 68.1099C64.8825 69.0366 66.1566 69.9633 67.4308 70.7741C68.9366 70.0791 70.5583 69.4999 72.0641 69.0366C72.18 69.0366 72.2958 68.9208 72.2958 68.9208C76.6975 67.6466 81.215 66.9516 85.7325 66.9516C95.4625 66.9516 105.192 69.9633 113.185 75.8708C117.471 72.3958 121.062 68.2258 123.957 63.3608C128.243 56.2949 130.212 48.3024 129.981 40.0783Z" fill="#238C32"/>
<path d="M124.074 91.7395C118.514 82.0095 109.479 74.8278 98.7068 71.5845C89.3243 68.6887 79.3626 69.0362 70.3276 72.5112C78.7835 77.8395 85.2701 85.4845 89.0926 94.7512C89.0926 94.867 89.7876 96.4887 89.9035 96.7203C91.8726 101.817 92.7993 107.261 93.031 112.705V114.906C93.031 116.412 92.9151 117.918 92.6835 119.424C97.201 120.93 101.95 121.74 106.815 121.74C115.039 121.74 123.032 119.424 129.982 115.138C130.213 106.914 128.244 98.9212 124.074 91.7395Z" fill="#238C32"/>
<path opacity="0.6" d="M67.0822 82.2419C66.5031 82.4736 65.9239 82.8211 65.3447 83.0528C65.8081 83.4003 66.3872 83.7478 66.8506 84.0953C66.8506 83.6319 66.9664 82.9369 67.0822 82.2419Z" fill="#2B4835"/>
<path d="M66.2741 87.1062C65.1158 86.1796 63.8416 85.2529 62.5674 84.4421C61.5249 84.9054 60.3666 85.3687 59.2083 85.7162C51.9108 88.1487 44.1499 88.8437 36.5049 87.5696C29.3233 86.4112 22.4891 83.5154 16.6974 79.3454C12.4116 82.8204 8.82075 86.9904 5.92492 91.7396C1.87075 98.8054 -0.214248 106.914 0.0174187 115.138C6.96742 119.424 14.9599 121.74 23.1841 121.74C34.5358 121.74 45.3083 117.455 53.6483 109.578C60.0191 103.323 64.4208 95.5621 66.2741 87.1062Z" fill="#238C32"/>
<path d="M59.6719 82.5892C51.216 77.2609 44.7294 69.6159 40.9069 60.3492C40.791 60.1175 40.2119 58.4959 40.2119 58.3801C38.2427 53.2834 37.316 47.8392 37.0844 42.395V40.1942C37.0844 38.6884 37.2002 37.1825 37.4319 35.6767C32.9144 34.1709 28.1652 33.36 23.3002 33.36C15.076 33.36 7.08353 35.6767 0.133524 39.9625C-0.0981429 48.1867 1.87102 56.1792 6.04103 63.3609C11.601 73.0909 20.636 80.2726 31.4085 83.5159C40.6752 86.4117 50.6369 86.0642 59.6719 82.5892Z" fill="#238C32"/>
<path d="M86.7751 131.818C86.7751 131.703 87.4701 129.965 87.4701 129.965C89.3235 125.1 90.2501 120.003 90.366 114.791V112.706C90.2501 107.493 89.3235 102.397 87.4701 97.5317C87.4701 97.4159 86.7751 95.7942 86.7751 95.6784C82.8368 86.2959 76.1185 78.6509 67.1993 73.5542C61.4076 70.195 56.6585 65.4458 53.4151 59.77C52.7201 58.4958 51.446 55.8317 50.9826 54.6734C49.2451 50.1558 48.4343 45.4067 48.5501 40.5417C48.666 35.5608 49.7085 30.6958 51.7935 26.1783C52.2568 25.1358 53.531 22.8192 53.531 22.7033L53.9943 21.8925C56.7743 17.2592 60.481 13.4367 64.8826 10.425C69.6318 13.6683 73.5701 17.9542 76.3501 22.935C78.8985 27.5683 80.5201 32.665 81.0993 37.9933C83.0685 36.6033 86.0801 34.8658 89.671 33.5917C88.6285 27.3367 86.3118 21.3133 82.8368 16.1008C78.8985 9.96167 73.5701 4.98083 67.1993 1.27417C66.6201 0.926667 66.041 0.579167 65.346 0.231667L64.9985 0L64.5351 0.231667C63.8401 0.579167 63.261 0.926667 62.6818 1.27417C53.8785 6.37084 47.0443 14.0158 43.106 23.3983C43.106 23.5142 42.411 25.1358 42.411 25.2517C40.5576 30.1167 39.631 35.2133 39.5151 40.4258V42.5108C39.631 47.7233 40.5576 52.82 42.411 57.685C42.411 57.8008 43.106 59.4225 43.106 59.5384C47.0443 68.9209 53.7626 76.5659 62.6818 81.6625C68.4735 85.0217 73.2226 89.7709 76.466 95.4467C77.161 96.7209 78.4351 99.385 78.8985 100.543C80.636 105.061 81.4468 109.81 81.331 114.675C81.2151 119.656 80.1726 124.521 78.0876 129.038C77.6243 130.081 76.3501 132.398 76.3501 132.513L75.8868 133.324C73.1068 137.958 69.4001 141.78 64.9985 144.792C60.2493 141.548 56.311 137.263 53.531 132.282C51.0985 127.996 49.5926 123.247 49.0135 118.382C45.7701 120.351 42.6426 121.741 40.4418 122.668C41.6001 128.575 43.9168 134.251 47.1601 139.232C51.0985 145.371 56.4268 150.352 62.7976 154.058C63.3768 154.406 63.956 154.753 64.651 155.101L65.1143 155.333L65.4618 155.101C66.1568 154.753 66.736 154.406 67.3151 154.058C76.1185 148.846 82.8368 141.201 86.7751 131.818Z" fill="#2FF141"/>
</g>
</svg>
